<?xml version="1.0" standalone="no"?>
<!DOCTYPE svg PUBLIC "-//W3C//DTD SVG 20010904//EN"
 "http://www.w3.org/TR/2001/REC-SVG-20010904/DTD/svg10.dtd">
<svg version="1.0" xmlns="http://www.w3.org/2000/svg"
 width="260.000000pt" height="260.000000pt" viewBox="0 0 260.000000 260.000000"
 preserveAspectRatio="xMidYMid meet">
<metadata>
Created by potrace 1.11, written by Peter Selinger 2001-2013
</metadata>
<g transform="translate(0.000000,260.000000) scale(0.100000,-0.100000)"
fill="#000000" stroke="none">
<path d="M0 1300 l0 -1300 1300 0 1300 0 0 1300 0 1300 -1300 0 -1300 0 0
-1300z m2029 1056 c55 -28 105 -82 132 -140 14 -32 19 -66 19 -147 0 -132 -8
-145 -128 -200 -46 -22 -86 -39 -88 -39 -2 0 -4 61 -4 135 0 102 -4 143 -15
165 -17 32 -61 60 -95 60 -34 0 -78 -28 -95 -60 -18 -36 -21 -266 -4 -338 16
-65 72 -183 231 -483 75 -141 149 -289 164 -330 27 -72 28 -81 32 -303 4 -261
0 -285 -69 -356 -66 -68 -103 -80 -257 -80 -114 0 -138 3 -177 21 -56 27 -127
104 -143 157 -16 54 -16 342 0 378 10 20 36 38 106 71 51 24 95 43 98 43 2 0
4 -88 4 -195 0 -216 6 -242 60 -270 37 -19 63 -19 100 0 52 27 60 57 60 227 0
224 -1 224 -227 650 -91 171 -165 324 -183 377 -29 87 -30 94 -30 283 0 188 1
196 26 246 29 58 79 106 138 133 33 15 66 19 169 19 116 0 132 -2 176 -24z
m-1021 -22 c29 -14 67 -44 86 -66 63 -74 66 -93 66 -472 0 -203 -4 -356 -10
-378 -7 -23 -27 -51 -54 -75 l-43 -37 31 -21 c17 -11 41 -40 54 -65 22 -43 22
-51 22 -390 0 -386 -3 -404 -66 -478 -19 -22 -57 -52 -86 -66 -51 -26 -55 -26
-280 -26 l-228 0 0 1050 0 1050 228 0 c225 0 229 0 280 -26z"/>
<path d="M710 1775 l0 -365 75 0 c95 0 130 16 145 68 8 24 10 136 8 325 l-3
289 -28 24 c-25 21 -38 24 -113 24 l-84 0 0 -365z"/>
<path d="M710 846 l0 -366 84 0 c75 0 88 3 113 24 l28 24 0 311 0 311 -28 27
c-25 25 -35 28 -112 32 l-85 3 0 -366z"/>
</g>
</svg>
