<?xml version="1.0" standalone="no"?>
<!DOCTYPE svg PUBLIC "-//W3C//DTD SVG 20010904//EN"
 "http://www.w3.org/TR/2001/REC-SVG-20010904/DTD/svg10.dtd">
<svg version="1.0" xmlns="http://www.w3.org/2000/svg"
 width="260.000000pt" height="260.000000pt" viewBox="0 0 260.000000 260.000000"
 preserveAspectRatio="xMidYMid meet">
<metadata>
Created by potrace 1.11, written by Peter Selinger 2001-2013
</metadata>
<g transform="translate(0.000000,260.000000) scale(0.100000,-0.100000)"
fill="#000000" stroke="none">
<path d="M0 1300 l0 -1300 1300 0 1300 0 0 1300 0 1300 -1300 0 -1300 0 0
-1300z m1458 1095 c35 -4 101 -17 147 -30 397 -115 695 -434 782 -836 25 -115
25 -342 0 -459 -78 -364 -334 -666 -682 -802 -319 -125 -674 -94 -970 83 -364
219 -573 643 -526 1062 31 266 130 476 316 663 184 186 421 301 669 323 89 8
137 7 264 -4z"/>
<path d="M1406 2295 c7 -18 6 -19 -9 -6 -15 12 -17 12 -11 -3 4 -11 1 -16 -10
-16 -9 0 -16 5 -16 10 0 6 -5 10 -11 10 -5 0 -7 -4 -4 -10 4 -6 -6 -8 -24 -6
-21 2 -28 0 -24 -10 3 -8 0 -14 -6 -14 -6 0 -10 3 -10 8 5 29 -2 34 -21 17
-11 -10 -20 -13 -20 -7 0 6 6 12 13 15 6 2 9 8 5 12 -5 5 -16 1 -25 -8 -22
-19 -29 -19 -71 -2 -31 14 -32 13 -21 -7 6 -12 7 -18 1 -14 -5 3 -24 3 -41 0
-27 -6 -29 -9 -19 -28 10 -19 9 -19 -12 2 -15 16 -29 22 -44 18 -11 -3 -25 -6
-31 -6 -5 0 1 -7 15 -15 l25 -15 -34 3 c-23 1 -35 -3 -38 -13 -4 -13 -3 -13 6
0 10 13 12 13 21 0 12 -19 12 -27 0 -35 -5 -3 -10 -1 -10 5 0 7 -8 9 -20 5
-19 -6 -25 3 -21 28 1 5 -3 6 -8 2 -6 -3 -8 -12 -4 -20 3 -9 -1 -15 -8 -16 -8
0 -23 -2 -34 -4 -11 -2 -31 -5 -45 -7 -14 -2 -30 -12 -37 -23 -17 -28 -16 -35
5 -28 16 6 16 6 0 -10 -9 -9 -21 -17 -27 -17 -6 0 -11 -5 -11 -11 0 -5 -5 -7
-10 -4 -6 4 -7 12 -3 18 4 7 1 7 -9 -1 -9 -8 -14 -20 -11 -28 7 -18 -7 -18
-33 1 -20 13 -21 13 -16 -10 3 -16 0 -25 -8 -25 -7 0 -10 7 -6 15 7 20 -4 19
-21 -2 -8 -10 -11 -12 -7 -4 5 10 3 12 -5 6 -7 -4 -11 -15 -8 -25 4 -14 -3
-20 -29 -25 -19 -3 -34 -11 -34 -17 0 -5 7 -8 15 -4 8 3 15 1 15 -4 0 -6 -5
-10 -10 -10 -6 0 -10 -8 -8 -17 2 -11 -8 -23 -26 -31 -38 -19 -63 -45 -58 -62
3 -9 -1 -11 -12 -7 -11 5 -16 1 -16 -13 0 -13 -7 -20 -19 -20 -11 0 -23 -5
-27 -12 -5 -7 -2 -9 7 -6 10 4 15 -1 15 -16 0 -27 -22 -50 -38 -40 -10 6 -10
4 0 -8 9 -11 10 -18 2 -23 -6 -3 -8 -10 -5 -14 2 -5 -4 -16 -14 -25 -11 -11
-16 -25 -13 -41 2 -14 -2 -31 -12 -40 -9 -9 -16 -22 -17 -28 -2 -42 -10 -71
-20 -77 -8 -6 -8 -9 0 -14 6 -4 11 -1 11 6 1 8 6 6 15 -6 15 -20 11 -41 -6
-31 -15 10 -10 -12 6 -25 11 -9 12 -16 5 -25 -11 -14 -3 -45 11 -45 5 0 9 -5
9 -11 0 -6 -7 -9 -14 -6 -10 4 -13 1 -10 -7 3 -8 -6 -26 -20 -41 -26 -28 -34
-55 -16 -55 6 0 10 7 10 16 0 14 2 14 16 -1 13 -13 14 -21 6 -41 -9 -18 -9
-24 1 -24 6 0 12 -14 13 -31 1 -20 -3 -29 -11 -25 -10 4 -10 -1 0 -21 7 -14
11 -32 8 -40 -3 -8 0 -13 8 -11 10 2 14 -7 13 -29 -1 -18 3 -33 8 -33 5 0 6
-5 3 -11 -10 -14 24 -49 41 -42 20 7 17 -7 -3 -23 -16 -12 -14 -13 18 -10 33
4 36 2 31 -20 -4 -23 -5 -23 -18 -7 -7 10 -14 13 -14 6 0 -6 18 -27 40 -46 22
-18 42 -44 44 -58 3 -13 5 -26 6 -29 2 -3 2 -8 1 -12 0 -5 4 -8 10 -8 6 0 9 7
5 15 -7 19 1 19 20 1 8 -8 10 -17 5 -20 -5 -4 -3 -19 5 -36 9 -16 12 -35 8
-41 -5 -9 0 -10 14 -7 23 6 31 -7 10 -15 -8 -3 -6 -8 7 -13 11 -4 26 -14 33
-21 18 -18 32 -16 32 4 0 13 3 14 12 5 8 -8 8 -15 -1 -25 -12 -15 -5 -47 11
-47 5 0 6 -6 2 -12 -5 -9 -2 -8 9 1 10 8 20 11 24 7 3 -3 1 -6 -5 -6 -7 0 -12
-4 -12 -10 0 -5 12 -10 26 -10 14 0 23 -4 19 -10 -7 -11 23 -9 43 4 9 5 15 1
19 -13 3 -11 8 -19 12 -16 4 2 13 -4 21 -15 7 -10 19 -16 25 -14 7 3 20 -2 29
-11 9 -9 16 -13 16 -8 0 4 4 2 9 -5 8 -13 23 -17 104 -29 22 -3 37 -11 37 -19
0 -8 6 -11 17 -7 11 4 14 3 9 -5 -4 -7 -2 -12 3 -12 6 0 11 9 11 20 0 25 17
26 23 3 4 -16 5 -16 6 1 1 12 6 16 17 12 9 -3 18 -6 20 -6 3 0 3 -4 -1 -9 -3
-5 0 -13 7 -17 7 -4 10 -4 6 1 -9 9 9 35 24 35 7 0 7 -5 0 -13 -8 -9 0 -12 36
-12 26 0 52 3 57 6 6 4 18 5 27 4 10 -2 15 2 12 10 -4 10 4 13 33 10 21 -1 41
2 44 7 4 6 12 7 20 2 18 -11 109 -14 109 -4 0 4 7 10 14 13 11 4 13 1 9 -11
-6 -15 -3 -14 15 2 12 11 22 16 22 12 0 -4 10 -2 21 5 15 8 19 8 15 0 -10 -15
7 -14 22 1 7 7 12 8 12 2 0 -5 4 -3 9 5 8 12 12 12 25 2 9 -8 16 -9 16 -3 0 5
-7 15 -15 22 -17 14 -20 30 -4 30 5 0 7 -4 4 -10 -9 -14 8 -12 24 3 11 10 12
7 7 -15 -3 -15 -1 -30 5 -33 6 -4 9 -1 8 6 -1 8 4 26 11 41 10 21 19 27 37 24
13 -3 21 -1 18 4 -3 5 4 11 15 15 11 3 20 11 20 16 0 5 6 9 14 9 7 0 25 11 40
25 15 14 32 25 38 25 5 0 8 7 4 15 -6 16 26 39 39 27 5 -4 5 -1 1 6 -5 8 -1
19 10 28 11 9 15 13 9 11 -5 -3 -16 1 -23 9 -10 11 -8 15 8 24 16 9 19 8 15
-7 -3 -10 2 -3 10 14 8 18 21 33 28 33 8 0 19 11 25 25 6 14 16 25 21 25 10 0
34 61 26 68 -3 3 -5 0 -5 -6 0 -7 -5 -12 -11 -12 -8 0 -9 4 0 13 6 8 7 18 3
23 -4 5 2 1 14 -9 24 -20 34 -22 34 -6 0 7 7 17 16 23 8 7 12 19 9 28 -5 13
-11 14 -31 4 -13 -6 -24 -14 -24 -18 0 -5 -5 -8 -11 -8 -8 0 -8 5 1 15 7 8 19
15 26 15 19 0 17 17 -3 30 -14 9 -15 10 -2 7 13 -4 16 3 14 41 -1 25 -7 48
-13 50 -7 2 -12 8 -12 14 0 6 6 8 14 5 19 -8 28 3 15 19 -11 14 -4 34 11 34 5
0 7 -7 4 -15 -4 -8 -1 -15 5 -15 6 0 11 4 11 10 0 5 7 7 15 4 8 -4 15 -1 15 5
0 6 7 11 15 11 9 0 12 6 9 15 -5 12 -9 13 -20 4 -8 -7 -18 -8 -22 -4 -4 4 -2
10 5 12 7 2 9 12 6 20 -5 12 -2 15 9 10 13 -4 16 1 15 29 -1 19 -4 34 -9 34
-4 0 -5 7 -1 16 4 12 7 13 14 3 13 -22 23 -1 11 23 -6 13 -11 17 -11 11 -1 -7
-6 -13 -11 -13 -7 0 -6 8 2 23 7 12 11 26 10 31 -2 4 2 14 8 21 7 8 5 21 -6
44 -8 17 -18 31 -20 31 -3 0 -2 -4 1 -10 3 -5 1 -10 -5 -10 -12 0 -3 47 14 70
9 13 9 13 -5 3 -9 -7 -19 -10 -22 -6 -11 10 -8 45 3 38 6 -3 10 -2 10 4 0 5
-4 12 -10 16 -5 3 -6 13 -3 22 5 12 2 15 -9 11 -16 -7 -18 1 -19 69 -1 24 -5
40 -10 37 -5 -3 -9 2 -9 10 0 9 8 16 18 17 11 0 8 4 -9 10 -19 7 -28 19 -31
39 -3 18 0 30 6 30 6 0 5 4 -2 9 -8 4 -12 12 -10 17 1 5 -8 11 -21 12 -13 2
-26 12 -28 23 -4 14 -11 18 -24 14 -14 -5 -22 0 -28 17 -4 13 -6 29 -4 36 3 6
-1 12 -8 12 -13 0 -69 58 -69 72 0 4 5 8 10 8 6 0 10 7 10 15 0 8 -5 15 -10
15 -6 0 -23 11 -38 25 -20 19 -24 27 -15 36 9 9 16 5 30 -19 23 -40 39 -42 19
-3 -18 33 -39 44 -55 28 -8 -8 -11 -8 -11 1 0 7 -4 12 -10 12 -5 0 -10 -7 -10
-16 0 -14 -3 -14 -15 -4 -9 7 -14 19 -11 27 4 8 1 11 -5 8 -15 -10 -57 3 -56
17 0 7 -1 22 -1 32 -2 19 -2 19 -23 0 -21 -19 -21 -18 -38 2 -9 11 -22 19 -28
17 -7 -3 -9 3 -6 15 7 28 -15 37 -39 15 -12 -10 -18 -12 -14 -5 4 7 1 12 -8
12 -8 0 -16 -3 -19 -7 -2 -5 -2 -3 -1 4 2 6 -10 15 -26 18 -16 3 -31 12 -33
18 -2 7 -2 2 0 -10 5 -33 -3 -30 -58 20 -21 19 -34 23 -23 6 4 -7 -1 -7 -16 1
-15 8 -20 8 -16 1 14 -22 -7 -11 -31 17 -18 20 -22 22 -17 7z m294 -85 c0 -5
-2 -10 -4 -10 -3 0 -8 5 -11 10 -3 6 -1 10 4 10 6 0 11 -4 11 -10z m-766 -45
c-4 -8 -11 -15 -17 -15 -6 0 -19 -7 -29 -17 -10 -9 -18 -12 -18 -7 0 7 58 54
67 54 1 0 0 -7 -3 -15z m22 -22 c-10 -10 -19 5 -10 18 6 11 8 11 12 0 2 -7 1
-15 -2 -18z m-10 -65 c4 -7 3 -8 -4 -4 -7 4 -12 1 -12 -8 0 -9 6 -16 13 -16 9
0 8 -3 -2 -9 -21 -13 5 -24 29 -11 15 8 20 8 22 -2 0 -7 2 -17 2 -23 1 -5 5
-16 10 -24 7 -11 10 -11 17 0 7 11 9 11 9 -1 0 -9 -6 -22 -12 -29 -11 -10 -10
-11 5 -6 20 8 22 -6 6 -37 -8 -15 -8 -22 1 -28 7 -5 10 -16 6 -25 -5 -14 -2
-16 13 -12 13 3 18 1 15 -8 -3 -7 0 -16 7 -21 7 -4 10 -3 5 4 -3 6 -2 13 3 16
5 3 11 -1 15 -9 3 -8 1 -15 -4 -15 -6 0 -10 -4 -10 -10 0 -5 6 -10 14 -10 10
0 12 -7 8 -22 -5 -18 -7 -20 -10 -6 -2 11 -11 17 -25 15 -15 -1 -22 4 -24 18
-1 15 -1 16 3 3 3 -10 10 -18 15 -18 13 0 11 14 -3 28 -9 9 -16 8 -30 -5 -17
-16 -20 -15 -36 2 -9 10 -11 15 -4 11 18 -10 15 14 -7 58 -13 25 -18 48 -14
72 6 34 0 39 -36 34 -8 -1 -18 4 -22 12 -6 9 -9 4 -9 -15 0 -16 -4 -26 -10
-22 -5 3 -10 2 -10 -3 0 -6 -9 -8 -21 -5 -17 5 -19 11 -14 43 5 32 3 39 -12
42 -15 3 -15 5 5 10 12 3 20 2 16 -3 -8 -13 10 -11 24 3 7 7 12 8 12 4 0 -5 9
3 21 18 23 30 25 30 35 14z m228 -94 c16 -16 13 -34 -6 -34 -5 0 -8 7 -5 14 4
10 1 13 -9 9 -8 -3 -14 1 -14 11 0 20 14 20 34 0z m-544 -4 c0 -5 -4 -10 -10
-10 -5 0 -10 5 -10 10 0 6 5 10 10 10 6 0 10 -4 10 -10z m330 -19 c0 -12 -20
-25 -27 -18 -7 7 6 27 18 27 5 0 9 -4 9 -9z m185 -41 c3 -5 1 -10 -4 -10 -6 0
-11 5 -11 10 0 6 2 10 4 10 3 0 8 -4 11 -10z m-570 -30 c-3 -5 -13 -10 -21
-10 -8 0 -12 5 -9 10 3 6 13 10 21 10 8 0 12 -4 9 -10z m575 -70 c0 -5 -5 -10
-11 -10 -5 0 -7 5 -4 10 3 6 8 10 11 10 2 0 4 -4 4 -10z m-660 -29 c0 -5 -7
-12 -16 -15 -14 -5 -15 -4 -4 9 14 17 20 19 20 6z m450 -6 c0 -9 11 -21 25
-27 24 -11 25 -12 8 -31 -17 -20 -17 -20 2 -13 18 6 17 5 -3 -15 -17 -15 -21
-24 -13 -32 14 -14 14 -30 1 -22 -6 3 -13 -1 -16 -9 -3 -9 -11 -16 -17 -16 -5
0 -3 8 7 19 14 16 15 20 2 30 -11 9 -15 9 -19 -1 -4 -8 -6 -7 -6 5 -1 10 -9
17 -21 17 -18 0 -19 2 -8 20 7 11 21 20 32 20 16 0 18 5 13 35 -3 19 -2 35 4
35 5 0 9 -7 9 -15z m-80 -25 c0 -10 6 -21 13 -23 9 -4 8 -8 -3 -16 -19 -13
-40 -14 -40 -1 0 5 7 7 15 4 13 -5 13 -3 0 22 -19 37 -19 45 0 38 8 -4 15 -14
15 -24z m301 10 c-26 -22 -41 -25 -41 -9 0 5 5 7 10 4 6 -3 13 1 16 9 3 9 14
16 23 16 12 -1 11 -5 -8 -20z m109 10 c0 -5 -4 -10 -10 -10 -5 0 -10 5 -10 10
0 6 5 10 10 10 6 0 10 -4 10 -10z m-240 -10 c0 -5 -4 -10 -10 -10 -5 0 -10 5
-10 10 0 6 5 10 10 10 6 0 10 -4 10 -10z m270 0 c0 -5 -5 -10 -11 -10 -5 0 -7
5 -4 10 3 6 8 10 11 10 2 0 4 -4 4 -10z m-80 -26 c11 -13 10 -16 -8 -20 -12
-4 -19 -11 -15 -20 3 -8 -1 -14 -10 -14 -8 0 -18 7 -21 16 -5 13 -9 14 -21 4
-8 -6 -19 -9 -25 -5 -13 8 -13 35 1 35 6 0 9 -7 5 -15 -3 -8 -1 -15 4 -15 6 0
10 5 10 10 0 6 9 10 21 10 11 0 18 4 15 9 -5 8 7 18 25 20 4 1 12 -6 19 -15z
m-207 -29 c-3 -9 -8 -14 -10 -11 -3 3 -2 9 2 15 9 16 15 13 8 -4z m83 3 c4 -6
2 -14 -4 -16 -7 -2 -10 -7 -7 -12 3 -4 -2 -10 -10 -14 -17 -6 -21 9 -4 19 6 4
8 13 5 21 -7 17 10 19 20 2z m454 2 c0 -5 -5 -10 -11 -10 -5 0 -7 5 -4 10 3 6
8 10 11 10 2 0 4 -4 4 -10z m-49 -37 c8 -9 9 -14 2 -10 -6 4 -13 1 -16 -5 -2
-7 -7 -10 -11 -7 -6 5 2 39 9 39 1 0 9 -8 16 -17z m-326 -36 c1 -21 -4 -38
-11 -41 -14 -5 -37 17 -27 27 12 12 -18 7 -47 -8 -27 -14 -29 -14 -35 6 -8 23
2 39 13 23 5 -7 22 -7 49 -2 32 7 41 13 36 25 -4 10 -2 14 8 11 7 -2 14 -20
14 -41z m279 -39 c-3 -9 0 -19 6 -23 17 -10 11 -25 -7 -19 -14 5 -15 4 -4 -4
7 -5 12 -15 10 -21 -3 -7 -11 -3 -21 9 -10 11 -13 20 -8 20 12 0 10 69 -2 76
-4 3 -8 11 -8 17 0 7 9 1 20 -13 11 -14 17 -32 14 -42z m646 47 c7 -8 8 -15 2
-15 -5 0 -15 7 -22 15 -7 8 -8 15 -2 15 5 0 15 -7 22 -15z m-1060 -3 c0 -10
-22 -32 -32 -32 -13 0 -9 28 5 33 19 8 27 8 27 -1z m380 -48 c0 -12 -4 -26
-10 -29 -5 -3 -10 -16 -10 -28 0 -16 -3 -18 -12 -9 -8 8 -8 15 1 26 8 9 10 28
5 53 -6 35 -6 37 9 24 10 -7 17 -24 17 -37z m-166 20 c9 -23 7 -34 -5 -34 -6
0 -9 7 -5 15 3 8 1 15 -4 15 -6 0 -10 5 -10 10 0 16 17 12 24 -6z m56 -14 c0
-5 -2 -10 -4 -10 -3 0 -8 5 -11 10 -3 6 -1 10 4 10 6 0 11 -4 11 -10z m184 -1
c-3 -6 -1 -15 7 -19 10 -7 10 -11 0 -24 -26 -32 -33 -15 -15 42 2 6 6 12 9 12
4 0 3 -5 -1 -11z m46 -3 c0 -3 -4 -8 -10 -11 -5 -3 -10 -1 -10 4 0 6 5 11 10
11 6 0 10 -2 10 -4z m-733 -28 c-3 -8 -6 -5 -6 6 -1 11 2 17 5 13 3 -3 4 -12
1 -19z m78 2 c-3 -5 1 -10 10 -10 9 0 13 -5 10 -10 -5 -8 -11 -7 -21 1 -17 14
-18 29 -3 29 5 0 7 -4 4 -10z m485 -30 c0 -5 -2 -10 -4 -10 -3 0 -8 5 -11 10
-3 6 -1 10 4 10 6 0 11 -4 11 -10z m-380 -20 c0 -5 -2 -10 -4 -10 -3 0 -8 5
-11 10 -3 6 -1 10 4 10 6 0 11 -4 11 -10z m1170 0 c0 -5 -5 -10 -11 -10 -5 0
-7 5 -4 10 3 6 8 10 11 10 2 0 4 -4 4 -10z m44 -6 c4 -10 1 -14 -6 -12 -15 5
-23 28 -10 28 5 0 13 -7 16 -16z m-1814 -20 c0 -16 -9 -18 -30 -4 -13 8 -12
10 3 10 11 0 15 4 11 12 -4 7 -3 8 4 4 7 -4 12 -14 12 -22z m545 16 c3 -5 1
-10 -4 -10 -6 0 -11 5 -11 10 0 6 2 10 4 10 3 0 8 -4 11 -10z m172 -12 c-3 -8
-6 -5 -6 6 -1 11 2 17 5 13 3 -3 4 -12 1 -19z m123 12 c0 -5 -5 -10 -11 -10
-5 0 -7 5 -4 10 3 6 8 10 11 10 2 0 4 -4 4 -10z m140 0 c0 -5 -7 -7 -15 -4 -8
4 -15 8 -15 10 0 2 7 4 15 4 8 0 15 -4 15 -10z m585 -10 c3 -5 1 -10 -4 -10
-6 0 -11 5 -11 10 0 6 2 10 4 10 3 0 8 -4 11 -10z m-1165 -60 c0 -5 -2 -10 -4
-10 -3 0 -8 5 -11 10 -3 6 -1 10 4 10 6 0 11 -4 11 -10z m290 -10 c0 -5 -5
-10 -11 -10 -5 0 -7 5 -4 10 3 6 8 10 11 10 2 0 4 -4 4 -10z m108 -11 c4 -11
2 -11 -9 -2 -9 9 -16 10 -26 2 -9 -8 -13 -8 -13 -1 0 24 41 25 48 1z m-668 1
c0 -5 -2 -10 -4 -10 -3 0 -8 5 -11 10 -3 6 -1 10 4 10 6 0 11 -4 11 -10z m870
0 c0 -5 -4 -10 -10 -10 -5 0 -10 5 -10 10 0 6 5 10 10 10 6 0 10 -4 10 -10z
m-972 -25 c-3 -3 -9 2 -12 12 -6 14 -5 15 5 6 7 -7 10 -15 7 -18z m1518 10
c-11 -8 -14 -15 -8 -15 7 0 17 -12 22 -26 7 -16 16 -24 24 -21 8 3 17 0 20 -8
7 -20 -19 -26 -43 -9 -12 9 -21 11 -21 5 0 -6 -5 -11 -11 -11 -5 0 -7 5 -3 12
5 8 2 9 -9 5 -12 -4 -17 -1 -17 10 0 9 -8 22 -17 30 -17 14 -17 14 0 9 11 -3
17 0 17 10 0 8 4 13 9 9 5 -3 12 -1 16 5 3 5 14 10 23 10 15 -1 15 -2 -2 -15z
m-1142 -29 c-6 -16 -24 -23 -24 -8 0 10 22 33 27 28 2 -2 1 -11 -3 -20z m66
20 c0 -3 -4 -8 -10 -11 -5 -3 -10 -1 -10 4 0 6 5 11 10 11 6 0 10 -2 10 -4z
m50 -6 c0 -5 -2 -10 -4 -10 -3 0 -8 5 -11 10 -3 6 -1 10 4 10 6 0 11 -4 11
-10z m133 -5 c-3 -9 3 -26 13 -38 10 -12 12 -16 4 -9 -17 14 -34 16 -25 2 3
-5 0 -7 -9 -4 -11 4 -12 12 -4 35 5 16 14 29 19 29 4 0 6 -7 2 -15z m377 5 c0
-5 -4 -10 -10 -10 -5 0 -10 5 -10 10 0 6 5 10 10 10 6 0 10 -4 10 -10z m30 6
c0 -3 -4 -8 -10 -11 -5 -3 -10 -1 -10 4 0 6 5 11 10 11 6 0 10 -2 10 -4z
m-970 -16 c0 -5 -5 -10 -11 -10 -5 0 -7 5 -4 10 3 6 8 10 11 10 2 0 4 -4 4
-10z m530 -10 c0 -5 -4 -10 -10 -10 -5 0 -10 5 -10 10 0 6 5 10 10 10 6 0 10
-4 10 -10z m-480 -4 c0 -3 -4 -8 -10 -11 -5 -3 -10 -1 -10 4 0 6 5 11 10 11 6
0 10 -2 10 -4z m890 -27 c0 -11 -7 -19 -17 -19 -13 0 -14 3 -6 11 6 6 9 18 6
27 -4 10 -2 13 5 8 7 -4 12 -16 12 -27z m434 15 c5 -14 4 -15 -9 -4 -17 14
-19 20 -6 20 5 0 12 -7 15 -16z m-534 -4 c0 -5 -2 -10 -4 -10 -3 0 -8 5 -11
10 -3 6 -1 10 4 10 6 0 11 -4 11 -10z m-314 -25 c9 -19 9 -27 -2 -36 -18 -15
-64 -20 -64 -8 0 5 5 9 11 9 7 0 9 9 5 24 -10 42 31 52 50 11z m1168 10 c-4
-8 -8 -15 -10 -15 -2 0 -4 7 -4 15 0 8 4 15 10 15 5 0 7 -7 4 -15z m-1714 -5
c0 -5 -5 -10 -11 -10 -5 0 -7 5 -4 10 3 6 8 10 11 10 2 0 4 -4 4 -10z m1680
-8 c0 -5 -12 -14 -27 -21 -28 -13 -28 -13 -9 8 20 22 36 27 36 13z m-1090 -12
c0 -5 -4 -10 -10 -10 -5 0 -10 5 -10 10 0 6 5 10 10 10 6 0 10 -4 10 -10z
m-394 -37 c-11 -11 -19 6 -11 24 8 17 8 17 12 0 3 -10 2 -21 -1 -24z m-278 7
c-14 -22 -24 -19 -15 5 4 8 11 15 17 15 6 0 6 -7 -2 -20z m62 -17 c0 -25 -15
-12 -17 14 -1 19 1 22 8 12 5 -8 9 -20 9 -26z m480 -3 c0 -5 -5 -10 -11 -10
-5 0 -7 5 -4 10 3 6 8 10 11 10 2 0 4 -4 4 -10z m50 -17 c0 -10 -4 -14 -8 -8
-4 6 -11 13 -16 18 -5 4 -2 7 7 7 10 0 17 -8 17 -17z m-580 -13 c0 -5 -4 -10
-10 -10 -5 0 -10 5 -10 10 0 6 5 10 10 10 6 0 10 -4 10 -10z m1635 -40 c3 -5
1 -10 -4 -10 -6 0 -11 5 -11 10 0 6 2 10 4 10 3 0 8 -4 11 -10z m-955 -40 c0
-5 -4 -10 -10 -10 -5 0 -10 5 -10 10 0 6 5 10 10 10 6 0 10 -4 10 -10z m1090
0 c0 -5 -4 -10 -10 -10 -5 0 -10 5 -10 10 0 6 5 10 10 10 6 0 10 -4 10 -10z
m-158 -82 c-16 -16 27 -39 46 -25 8 6 12 6 12 -1 0 -6 -4 -14 -10 -17 -5 -3
-10 -16 -10 -28 0 -25 -16 -12 -22 18 -4 24 -22 22 -24 -3 -2 -44 -5 -58 -13
-71 -8 -12 -12 -12 -26 2 -15 15 -15 17 -1 17 19 0 22 20 4 20 -8 1 -6 6 5 14
9 7 17 23 17 35 0 18 -4 20 -26 15 -19 -5 -25 -4 -20 5 4 6 18 11 31 11 13 0
27 5 30 10 3 6 9 10 13 10 3 0 1 -5 -6 -12z m-1222 -8 c0 -5 -5 -10 -11 -10
-5 0 -7 5 -4 10 3 6 8 10 11 10 2 0 4 -4 4 -10z m-80 -55 c0 -14 -4 -25 -9
-25 -5 0 -7 9 -4 20 4 16 2 19 -13 14 -16 -5 -16 -4 -4 5 23 16 30 13 30 -14z
m1456 1 c18 -19 18 -26 -3 -26 -9 0 -13 3 -10 7 4 3 2 12 -4 20 -15 18 -1 17
17 -1z m-1375 -16 c10 -6 19 -15 19 -21 0 -6 -5 -7 -10 -4 -6 4 -17 1 -25 -5
-9 -8 -15 -8 -15 -2 0 6 6 13 13 15 9 4 8 8 -3 16 -19 14 -5 14 21 1z m221
-25 c-5 -28 -20 -33 -29 -9 -3 9 0 20 8 25 22 14 27 11 21 -16z m38 -1 c0 -8
-4 -12 -10 -9 -5 3 -10 10 -10 16 0 5 5 9 10 9 6 0 10 -7 10 -16z m971 -7
c-10 -9 -11 -8 -5 6 3 10 9 15 12 12 3 -3 0 -11 -7 -18z m-1586 -7 c3 -5 1
-10 -4 -10 -6 0 -11 5 -11 10 0 6 2 10 4 10 3 0 8 -4 11 -10z m1661 -14 c-1
-22 -3 -23 -17 -10 -10 9 -24 12 -34 8 -13 -5 -16 -4 -11 5 5 8 18 10 32 7 14
-4 24 -2 24 4 0 5 2 10 4 10 2 0 3 -11 2 -24z m-1486 7 c0 -5 -5 -15 -10 -23
-7 -12 -12 -12 -22 -2 -10 10 -10 15 2 22 18 12 30 13 30 3z m1341 -12 c-8 -5
-20 -7 -28 -4 -21 8 -15 13 15 13 20 0 23 -3 13 -9z m195 -18 c-8 -8 -36 5
-36 17 0 7 6 7 21 0 11 -7 18 -14 15 -17z m-226 -3 c0 -5 -2 -10 -4 -10 -3 0
-8 5 -11 10 -3 6 -1 10 4 10 6 0 11 -4 11 -10z m-1357 -19 c22 13 22 0 0 -18
-17 -13 -16 -14 5 -9 18 3 22 1 18 -10 -3 -8 -2 -12 3 -9 5 3 12 1 15 -4 3 -5
-2 -12 -11 -15 -14 -6 -15 -9 -4 -15 9 -6 10 -11 2 -15 -6 -4 -11 -2 -11 5 0
6 -8 9 -18 7 -23 -6 -48 18 -26 26 9 3 12 1 9 -4 -3 -6 -1 -10 4 -10 6 0 11 7
11 15 0 12 -7 14 -27 9 -24 -6 -26 -5 -20 17 4 13 7 31 7 39 1 13 3 12 13 -2
9 -12 17 -14 30 -7z m472 9 c3 -5 1 -10 -4 -10 -6 0 -11 5 -11 10 0 6 2 10 4
10 3 0 8 -4 11 -10z m-423 -22 c-7 -7 -12 -8 -12 -2 0 14 12 26 19 19 2 -3 -1
-11 -7 -17z m1338 -6 c0 -15 -2 -15 -10 -2 -13 20 -13 33 0 25 6 -3 10 -14 10
-23z m-990 14 c0 -3 -4 -8 -10 -11 -5 -3 -10 -1 -10 4 0 6 5 11 10 11 6 0 10
-2 10 -4z m665 -16 c-3 -5 -10 -10 -16 -10 -5 0 -9 5 -9 10 0 6 7 10 16 10 8
0 12 -4 9 -10z m390 -20 c-3 -5 -10 -10 -16 -10 -5 0 -9 5 -9 10 0 6 7 10 16
10 8 0 12 -4 9 -10z m-1171 -25 c3 -8 1 -15 -4 -15 -6 0 -10 7 -10 15 0 8 2
15 4 15 2 0 6 -7 10 -15z m180 -49 c-10 -8 -21 -12 -23 -10 -3 2 4 11 15 18
10 8 21 12 23 10 3 -2 -4 -11 -15 -18z m1096 9 c-7 -9 -15 -13 -17 -11 -7 7 7
26 19 26 6 0 6 -6 -2 -15z m-1035 -35 c3 -5 1 -10 -4 -10 -6 0 -11 5 -11 10 0
6 2 10 4 10 3 0 8 -4 11 -10z m-160 -20 c11 -18 -5 -31 -21 -16 -8 8 -14 17
-14 20 0 10 28 7 35 -4z m195 6 c0 -3 -4 -8 -10 -11 -5 -3 -10 -1 -10 4 0 6 5
11 10 11 6 0 10 -2 10 -4z m50 -10 c0 -3 -7 -12 -17 -21 -13 -13 -13 -19 -3
-25 7 -4 11 -13 8 -21 -3 -8 -13 -3 -31 16 l-26 29 32 12 c18 6 33 12 35 13 1
0 2 -1 2 -3z m-530 -30 c0 -2 -7 -7 -16 -10 -8 -3 -12 -2 -9 4 6 10 25 14 25
6z m198 -41 c-3 -3 -9 2 -12 12 -6 14 -5 15 5 6 7 -7 10 -15 7 -18z m-178 -15
c0 -5 -7 -7 -15 -4 -8 4 -12 10 -9 15 6 11 24 2 24 -11z m470 6 c0 -3 -4 -8
-10 -11 -5 -3 -10 -1 -10 4 0 6 5 11 10 11 6 0 10 -2 10 -4z m880 -17 c-7 -11
-14 -18 -17 -15 -3 3 0 12 7 21 18 21 23 19 10 -6z m-1165 -9 c3 -5 1 -10 -4
-10 -6 0 -11 5 -11 10 0 6 2 10 4 10 3 0 8 -4 11 -10z m305 0 c-8 -5 -10 -10
-4 -10 13 0 28 -30 19 -38 -3 -3 -14 5 -25 18 -20 23 -14 40 15 40 6 0 3 -5
-5 -10z m60 -15 c0 -8 -4 -15 -10 -15 -5 0 -10 7 -10 15 0 8 5 15 10 15 6 0
10 -7 10 -15z m-520 -10 c-7 -9 -15 -13 -17 -11 -7 7 7 26 19 26 6 0 6 -6 -2
-15z m410 -30 c-7 -8 -17 -15 -23 -15 -5 0 -2 9 8 20 10 11 15 20 11 20 -4 0
-4 6 1 13 5 9 9 7 11 -6 2 -10 -2 -24 -8 -32z m180 22 c0 -7 -9 -13 -20 -14
-16 -1 -18 1 -8 17 13 20 28 18 28 -3z m158 -7 c-2 -17 -7 -30 -11 -30 -4 0
-7 2 -7 5 0 3 0 16 0 30 0 14 5 25 11 25 5 0 9 -14 7 -30z m-574 4 c3 -8 2
-12 -4 -9 -6 3 -10 10 -10 16 0 14 7 11 14 -7z m31 6 c3 -5 1 -10 -4 -10 -6 0
-11 5 -11 10 0 6 2 10 4 10 3 0 8 -4 11 -10z m430 0 c3 -5 1 -10 -4 -10 -6 0
-11 5 -11 10 0 6 2 10 4 10 3 0 8 -4 11 -10z m-355 -15 c0 -8 -7 -15 -16 -15
-14 0 -14 3 -4 15 7 8 14 15 16 15 2 0 4 -7 4 -15z m509 -2 c-13 -15 -12 -16
9 -11 12 4 22 2 22 -3 0 -5 5 -9 11 -9 5 0 8 4 4 9 -10 17 18 24 30 8 9 -12
15 -13 23 -5 8 8 9 5 5 -11 -3 -13 1 -29 13 -42 11 -12 14 -23 8 -29 -15 -15
-70 -15 -88 -1 -9 8 -19 11 -23 8 -3 -4 1 -9 10 -13 9 -3 13 -12 10 -20 -7
-20 -23 -17 -23 4 0 10 -5 23 -12 30 -8 8 -8 12 -1 12 6 0 13 11 16 25 4 25 4
25 -15 8 -21 -19 -63 -29 -53 -13 3 5 15 10 26 10 16 0 18 3 9 19 -8 16 -6 22
7 30 25 15 27 13 12 -6z m475 -8 c-4 -8 -11 -12 -16 -9 -6 4 -5 10 3 15 19 12
19 11 13 -6z m-964 -25 c0 -5 -4 -10 -9 -10 -6 0 -13 5 -16 10 -3 6 1 10 9 10
9 0 16 -4 16 -10z m935 0 c-3 -5 -14 -10 -23 -10 -15 0 -15 2 -2 10 20 13 33
13 25 0z m-885 -10 c0 -5 -5 -10 -11 -10 -5 0 -7 -4 -4 -10 3 -5 1 -10 -4 -10
-13 0 -13 3 -5 24 7 18 24 22 24 6z m660 -24 c0 -2 -7 -6 -15 -10 -8 -3 -15
-1 -15 4 0 6 7 10 15 10 8 0 15 -2 15 -4z m-610 -46 c0 -5 -5 -10 -11 -10 -5
0 -7 5 -4 10 3 6 8 10 11 10 2 0 4 -4 4 -10z m600 -10 c0 -5 -5 -10 -11 -10
-5 0 -7 5 -4 10 3 6 8 10 11 10 2 0 4 -4 4 -10z m-150 -10 c0 -5 -4 -10 -10
-10 -5 0 -10 5 -10 10 0 6 5 10 10 10 6 0 10 -4 10 -10z m40 -10 c0 -5 -5 -10
-11 -10 -5 0 -7 5 -4 10 3 6 8 10 11 10 2 0 4 -4 4 -10z m-510 -52 c0 -6 -7
-7 -16 -4 -9 3 -18 6 -20 6 -3 0 -3 4 1 10 7 11 35 2 35 -12z m339 6 c13 -12
-8 -10 -29 2 l-25 15 25 -7 c14 -3 27 -8 29 -10z m-79 -34 c0 -5 -4 -10 -10
-10 -5 0 -10 5 -10 10 0 6 5 10 10 10 6 0 10 -4 10 -10z"/>
<path d="M965 2010 c3 -5 8 -10 11 -10 2 0 4 5 4 10 0 6 -5 10 -11 10 -5 0 -7
-4 -4 -10z"/>
<path d="M850 1970 c0 -5 5 -10 11 -10 5 0 7 5 4 10 -3 6 -8 10 -11 10 -2 0
-4 -4 -4 -10z"/>
<path d="M982 1925 c-11 -12 -10 -15 3 -15 8 0 15 7 15 15 0 18 -2 18 -18 0z"/>
<path d="M990 1880 c0 -12 28 -25 36 -17 3 3 -4 10 -15 17 -15 7 -21 7 -21 0z"/>
<path d="M965 1340 c-3 -5 -1 -10 4 -10 6 0 11 5 11 10 0 6 -2 10 -4 10 -3 0
-8 -4 -11 -10z"/>
<path d="M1740 2181 c0 -5 7 -12 16 -15 14 -5 15 -4 4 9 -14 17 -20 19 -20 6z"/>
<path d="M1820 2130 c0 -6 7 -10 15 -10 8 0 15 2 15 4 0 2 -7 6 -15 10 -8 3
-15 1 -15 -4z"/>
<path d="M2010 2030 c0 -5 5 -10 11 -10 5 0 7 5 4 10 -3 6 -8 10 -11 10 -2 0
-4 -4 -4 -10z"/>
<path d="M350 1609 c0 -5 5 -7 10 -4 6 3 10 8 10 11 0 2 -4 4 -10 4 -5 0 -10
-5 -10 -11z"/>
<path d="M2250 1547 c0 -9 4 -18 9 -21 5 -4 8 1 7 9 -3 21 -16 31 -16 12z"/>
<path d="M2245 1050 c-3 -5 -1 -10 4 -10 6 0 11 5 11 10 0 6 -2 10 -4 10 -3 0
-8 -4 -11 -10z"/>
<path d="M1716 385 c4 -8 10 -12 15 -9 11 6 2 24 -11 24 -5 0 -7 -7 -4 -15z"/>
<path d="M1645 370 c3 -5 8 -10 11 -10 2 0 4 5 4 10 0 6 -5 10 -11 10 -5 0 -7
-4 -4 -10z"/>
<path d="M1581 344 c0 -11 3 -14 6 -6 3 7 2 16 -1 19 -3 4 -6 -2 -5 -13z"/>
<path d="M1450 339 c0 -5 5 -7 10 -4 6 3 10 8 10 11 0 2 -4 4 -10 4 -5 0 -10
-5 -10 -11z"/>
<path d="M1650 339 c0 -5 5 -7 10 -4 6 3 10 8 10 11 0 2 -4 4 -10 4 -5 0 -10
-5 -10 -11z"/>
</g>
</svg>
