<?xml version="1.0" standalone="no"?>
<!DOCTYPE svg PUBLIC "-//W3C//DTD SVG 20010904//EN"
 "http://www.w3.org/TR/2001/REC-SVG-20010904/DTD/svg10.dtd">
<svg version="1.0" xmlns="http://www.w3.org/2000/svg"
 width="260.000000pt" height="260.000000pt" viewBox="0 0 260.000000 260.000000"
 preserveAspectRatio="xMidYMid meet">
<metadata>
Created by potrace 1.11, written by Peter Selinger 2001-2013
</metadata>
<g transform="translate(0.000000,260.000000) scale(0.100000,-0.100000)"
fill="#000000" stroke="none">
<path d="M1300 2390 c-1 -8 -2 -18 -1 -22 1 -7 -38 -2 -47 7 -3 3 -15 -3 -26
-12 -12 -10 -15 -11 -8 -3 16 19 15 35 -2 21 -7 -6 -20 -9 -29 -5 -8 3 -18 1
-22 -5 -4 -8 -12 -8 -25 -1 -13 7 -21 7 -26 -2 -4 -6 -3 -8 4 -4 6 3 13 3 16
-2 2 -4 -4 -9 -15 -9 -10 -1 -19 4 -19 10 0 7 -4 6 -9 -3 -6 -8 -7 -18 -4 -24
3 -5 1 -6 -6 -2 -6 4 -9 11 -6 16 11 19 -50 -2 -63 -21 -10 -15 -17 -18 -25
-10 -17 17 -30 13 -23 -6 5 -15 4 -15 -9 1 -8 11 -18 17 -21 13 -4 -4 -1 -15
7 -24 13 -17 13 -17 -6 -3 -11 8 -24 20 -28 25 -5 6 -7 3 -4 -7 3 -9 -1 -19
-9 -22 -8 -3 -14 0 -15 7 0 7 -4 2 -10 -11 -5 -13 -13 -20 -19 -17 -5 3 -10 1
-10 -6 0 -8 -4 -8 -15 1 -13 11 -14 10 -9 -4 4 -9 3 -16 -2 -15 -23 4 -35 -2
-28 -13 6 -10 4 -10 -8 0 -19 15 -34 0 -22 -20 5 -8 0 -7 -11 2 -11 9 -16 10
-11 3 4 -7 2 -13 -3 -13 -6 0 -10 -5 -9 -12 2 -7 -1 -13 -7 -14 -34 -6 -54
-18 -48 -28 4 -6 -2 -4 -12 4 -15 12 -17 12 -10 1 6 -11 4 -13 -8 -8 -11 4
-15 1 -12 -13 2 -11 -1 -23 -7 -26 -7 -4 -8 -2 -4 4 4 7 2 12 -3 12 -6 0 -11
-5 -11 -10 0 -6 -3 -9 -7 -8 -5 2 -8 -1 -8 -6 0 -9 -45 -30 -58 -27 -5 1 -6
-3 -2 -9 5 -8 11 -7 21 1 8 6 17 9 21 5 3 -3 1 -6 -6 -6 -7 0 -10 -4 -7 -8 3
-5 -1 -9 -9 -10 -8 -1 -21 -3 -29 -4 -8 -1 -13 -11 -11 -25 2 -18 -1 -21 -10
-13 -10 8 -15 8 -21 -1 -5 -8 -3 -10 7 -5 8 4 6 1 -3 -7 -20 -16 -25 -32 -6
-21 7 4 8 3 4 -5 -4 -6 -12 -9 -17 -6 -13 9 -11 -9 3 -25 10 -11 9 -11 -7 0
-11 8 -24 20 -28 25 -4 6 -5 -3 -1 -19 5 -21 4 -27 -5 -22 -6 4 -11 1 -11 -8
0 -9 -4 -16 -10 -16 -5 0 -10 -5 -10 -11 0 -5 6 -7 13 -3 9 6 9 4 -1 -8 -10
-13 -10 -17 0 -22 9 -4 9 -5 -2 -5 -38 3 -43 0 -30 -16 11 -13 10 -14 -6 -8
-16 6 -17 5 -6 -9 10 -13 10 -18 1 -24 -8 -4 -9 -3 -5 4 4 7 4 12 1 12 -11 0
-49 -51 -51 -69 -2 -9 -4 -25 -6 -36 -2 -11 -7 -23 -13 -27 -5 -4 -11 -12 -11
-18 -1 -5 -2 -11 -4 -12 -1 -2 -3 -11 -5 -21 -2 -11 -6 -21 -9 -24 -3 -3 4
-13 16 -23 15 -12 18 -19 9 -24 -7 -4 -10 -2 -9 4 2 7 -7 14 -20 16 -22 4 -22
3 -7 -12 15 -15 14 -17 -2 -31 -17 -14 -17 -14 -1 -9 23 7 23 -3 1 -19 -12 -9
-16 -25 -15 -54 2 -22 -2 -49 -7 -59 -7 -13 -7 -22 1 -30 7 -7 8 -15 4 -19 -4
-4 -11 -1 -16 7 -7 11 -10 11 -10 2 0 -7 7 -15 15 -18 13 -6 15 -27 3 -59 -1
-5 2 -10 7 -10 6 0 9 4 7 8 -1 5 2 6 7 3 6 -4 4 -17 -5 -34 -17 -33 -18 -58
-2 -68 7 -5 8 -3 3 6 -5 9 -4 11 4 6 9 -6 9 -11 -1 -23 -15 -19 -19 -41 -8
-48 5 -3 7 4 5 15 -2 11 0 20 4 20 5 0 9 -11 9 -25 0 -14 -4 -25 -9 -25 -5 0
-9 -5 -9 -11 0 -5 4 -7 10 -4 5 3 10 0 10 -9 0 -8 -6 -17 -12 -19 -10 -4 -10
-6 0 -6 6 -1 12 -6 12 -12 0 -5 -6 -7 -13 -3 -8 5 -8 2 2 -9 14 -17 26 -24 17
-9 -3 5 0 9 7 9 7 0 12 -13 12 -28 1 -15 -3 -25 -7 -23 -5 3 -5 10 -2 16 4 7
2 8 -5 4 -8 -5 -5 -16 9 -37 12 -16 19 -33 15 -38 -3 -5 0 -13 6 -17 7 -4 9
-3 5 4 -3 6 -2 13 3 17 6 3 8 -5 5 -20 -3 -15 2 -32 11 -41 8 -9 15 -24 15
-35 0 -14 4 -18 13 -13 9 6 9 5 0 -7 -8 -10 -9 -19 -1 -29 8 -13 9 -12 4 2 -3
11 -1 15 8 12 8 -3 12 -14 9 -25 -4 -13 0 -19 11 -19 10 0 15 -4 11 -9 -5 -9
2 -17 39 -49 9 -6 13 -18 10 -26 -3 -8 0 -17 7 -22 8 -5 10 -3 4 6 -6 9 -4 11
4 6 7 -5 10 -10 8 -13 -3 -2 6 -15 20 -29 13 -13 21 -29 18 -34 -3 -6 1 -10
10 -10 10 0 13 5 9 12 -4 6 -3 8 4 5 5 -4 9 -15 7 -25 -3 -21 12 -52 26 -52 6
0 3 7 -6 16 -9 9 -13 19 -9 23 4 3 9 0 11 -7 3 -6 10 -9 15 -6 6 4 9 3 6 -2
-4 -5 0 -22 7 -39 7 -16 14 -24 14 -17 1 6 6 12 12 12 6 0 9 -7 6 -14 -4 -10
-1 -13 8 -9 8 3 12 10 8 17 -4 6 1 5 10 -3 15 -12 15 -31 1 -31 -3 0 -2 5 2
12 4 7 3 8 -5 4 -9 -6 -9 -11 0 -22 6 -7 15 -12 19 -9 5 3 12 1 15 -5 4 -6 15
-8 26 -5 11 4 19 2 19 -5 0 -6 -4 -8 -10 -5 -5 3 -10 -2 -10 -11 0 -10 3 -14
7 -11 3 4 13 1 21 -6 13 -10 14 -9 7 3 -7 12 -6 13 7 3 8 -7 17 -10 21 -7 3 3
4 -6 3 -20 -2 -14 1 -23 5 -20 5 3 9 13 10 22 0 12 3 11 9 -6 5 -12 12 -22 15
-22 4 0 3 6 -1 13 -5 8 -3 8 9 -2 9 -7 15 -17 12 -21 -3 -5 -1 -11 4 -14 5 -4
12 -2 15 3 4 5 14 8 24 6 9 -2 22 -4 27 -4 6 -1 4 -5 -4 -10 -8 -5 -9 -11 -3
-15 6 -3 14 -1 17 4 5 7 12 5 22 -7 8 -10 12 -12 8 -6 -4 9 -1 11 10 7 11 -5
13 -10 5 -19 -8 -9 -4 -12 16 -9 15 1 31 9 36 16 7 9 8 7 4 -8 -4 -14 -2 -21
8 -21 9 0 13 3 11 7 -2 4 2 7 10 7 8 0 12 -4 9 -9 -3 -4 0 -8 6 -8 6 0 8 -5 4
-12 -4 -7 -3 -8 5 -4 6 4 9 11 6 16 -3 5 0 12 6 16 7 4 9 3 5 -4 -4 -6 1 -11
11 -11 62 -2 88 -9 91 -24 2 -10 7 -15 12 -12 5 3 7 13 3 23 -3 11 1 8 12 -6
12 -17 22 -21 38 -16 12 4 28 7 35 7 7 0 11 7 7 16 -4 14 -3 14 8 -1 7 -9 31
-19 52 -22 28 -4 36 -3 25 4 -12 8 -11 10 8 10 13 0 20 -4 17 -10 -3 -5 0 -7
9 -4 9 3 12 12 8 22 -5 14 -4 15 10 2 9 -8 14 -19 11 -24 -3 -4 6 0 21 9 24
16 31 14 26 -10 -1 -5 7 -2 18 8 10 9 22 14 26 10 4 -4 4 0 1 9 -5 13 -2 15
14 11 12 -3 28 0 36 7 8 7 15 9 15 5 0 -4 8 -1 17 6 11 9 14 10 9 2 -5 -9 0
-12 17 -11 19 2 24 7 21 23 -3 20 -3 20 11 1 11 -14 15 -16 15 -5 0 8 12 22
26 32 24 18 27 18 44 2 19 -17 37 -5 24 17 -5 7 -3 8 6 3 10 -6 12 -3 7 11 -7
18 -6 18 7 1 17 -22 28 -22 24 0 -3 17 1 19 38 22 8 0 13 5 10 10 -3 5 1 11 9
14 8 4 13 1 11 -6 -1 -7 -1 -9 1 -4 3 4 9 4 15 1 6 -4 5 3 -2 16 -11 20 -10
21 9 11 16 -9 23 -7 39 14 11 14 28 25 38 26 11 0 14 3 6 6 -6 2 -10 9 -7 13
3 5 12 7 19 4 8 -3 17 0 22 7 4 7 3 10 -4 5 -6 -3 -13 -2 -16 3 -4 5 5 8 19 6
22 -2 23 0 13 13 -11 13 -10 15 6 9 16 -6 17 -5 7 7 -9 11 -9 16 0 22 7 4 9 3
6 -3 -4 -6 -1 -13 7 -16 9 -4 13 2 12 16 -1 13 4 21 12 19 6 -1 13 2 13 8 1 5
2 14 3 19 0 5 5 13 10 18 5 4 6 3 3 -3 -4 -7 0 -15 9 -18 9 -4 12 -2 8 5 -9
15 16 59 33 59 10 0 12 7 8 23 -5 17 -4 19 4 7 10 -15 12 -12 15 20 1 8 7 14
14 12 7 -1 12 7 12 17 0 11 5 23 10 26 6 4 7 11 4 17 -4 7 -2 8 5 4 9 -6 9
-11 0 -22 -18 -22 -7 -23 14 -2 9 10 12 18 6 18 -5 0 -8 4 -5 9 4 5 0 12 -6
15 -7 4 -3 4 10 2 12 -2 22 0 22 5 0 5 -6 9 -12 10 -7 0 -4 4 7 8 11 5 20 12
20 17 0 5 4 16 10 24 8 13 7 13 -8 1 -9 -7 -15 -17 -12 -20 2 -4 -2 -8 -9 -8
-9 0 -5 12 10 35 13 19 21 38 18 43 -3 5 2 6 10 3 9 -3 16 -2 17 2 2 30 9 48
21 56 10 7 9 8 -4 4 -10 -3 -20 0 -24 6 -4 7 -3 8 4 4 7 -4 12 -1 12 8 0 10 6
13 18 10 16 -5 16 -5 -1 6 -9 6 -15 16 -12 21 4 5 11 6 17 3 6 -4 8 -2 4 4 -3
5 0 13 6 16 7 3 2 4 -12 1 -14 -3 -19 -2 -12 1 6 3 10 10 7 14 -3 5 0 12 6 16
8 5 9 3 4 -6 -6 -9 -4 -11 4 -6 9 6 8 13 -6 28 -18 20 -17 21 2 10 18 -9 20
-7 20 14 -1 13 -5 27 -10 31 -4 5 -5 2 0 -6 6 -10 4 -12 -5 -6 -10 6 -9 11 5
21 18 14 32 69 14 59 -10 -7 -12 8 -2 19 10 9 13 36 4 36 -4 0 -13 -6 -21 -12
-8 -7 -7 -4 3 8 13 16 14 23 5 32 -9 9 -9 15 -1 23 8 8 13 7 18 -2 5 -8 4 -10
-3 -5 -7 4 -12 3 -12 -2 0 -6 6 -12 14 -15 18 -7 13 33 -5 44 -7 4 -8 12 -3
20 11 19 14 59 4 59 -4 0 -7 -12 -5 -27 2 -25 2 -26 -11 -8 -12 16 -11 21 4
39 9 10 12 16 6 13 -7 -4 -15 0 -18 9 -3 8 -2 12 4 9 6 -3 10 -1 10 4 0 6 -6
11 -12 12 -7 0 -4 4 7 9 16 7 17 9 3 9 -19 1 -27 18 -20 43 2 10 9 15 16 11 6
-4 5 1 -3 10 -14 18 -26 23 -16 8 3 -5 1 -12 -4 -15 -5 -4 -8 2 -6 11 2 10 4
22 4 26 1 5 6 5 13 1 7 -4 8 -3 4 5 -6 9 -11 9 -21 1 -11 -9 -12 -7 -8 9 3 14
1 21 -8 21 -11 0 -11 2 1 10 10 6 11 10 3 10 -7 0 -13 6 -13 14 0 8 6 17 13
20 6 4 1 4 -11 2 -13 -3 -21 -2 -18 1 3 4 0 13 -7 22 -11 14 -10 14 6 2 27
-21 20 -5 -10 25 -28 26 -28 26 -3 13 22 -11 23 -10 13 3 -7 8 -10 18 -7 21 4
4 -5 11 -19 16 -33 13 -42 28 -26 47 7 8 8 14 3 13 -5 -1 -15 -1 -23 0 -11 1
-11 4 0 18 10 11 10 14 2 9 -8 -4 -13 -2 -13 4 0 7 -7 9 -16 6 -8 -3 -13 -2
-9 3 3 5 -1 12 -7 15 -7 3 -2 4 12 1 14 -3 19 -2 13 1 -7 3 -13 12 -13 19 0 7
-7 16 -16 19 -15 6 -15 4 -3 -11 12 -16 12 -17 -2 -6 -9 7 -18 10 -22 7 -3 -3
-3 3 0 15 3 13 1 21 -7 21 -10 0 -10 3 -1 14 9 11 9 16 0 22 -7 4 -9 3 -6 -3
4 -6 0 -13 -8 -17 -8 -3 -14 -2 -14 2 4 23 -3 34 -17 28 -13 -5 -14 -4 -6 7
12 14 6 27 -12 27 -6 0 -4 -5 4 -10 8 -5 10 -10 4 -10 -18 0 -24 13 -12 27 6
8 7 13 2 12 -5 -1 -16 -1 -24 0 -13 1 -13 2 0 11 12 8 9 10 -12 10 -16 0 -28
5 -28 11 0 5 6 7 13 3 6 -4 4 1 -5 11 -9 10 -26 19 -37 20 -23 1 -51 23 -51
39 0 6 7 3 14 -7 12 -16 14 -16 20 -2 3 9 2 13 -3 10 -5 -3 -12 -1 -16 5 -4 7
-12 7 -25 0 -24 -13 -30 -13 -30 1 0 5 5 7 10 4 14 -8 13 8 -1 22 -14 14 -42
5 -32 -10 3 -6 1 -7 -5 -3 -9 5 -9 13 -1 27 9 19 9 19 -10 10 -16 -9 -22 -7
-33 7 -7 10 -20 22 -28 27 -13 8 -13 7 0 -11 14 -19 14 -19 -8 0 -12 11 -22
16 -22 11 0 -4 -6 -2 -13 4 -8 6 -17 9 -20 6 -4 -3 -5 -2 -2 1 8 12 -24 34
-49 34 -14 0 -26 5 -26 12 0 6 -10 3 -21 -8 -22 -19 -22 -19 -10 3 10 20 9 22
-5 16 -13 -5 -15 -3 -9 7 5 8 4 11 -3 6 -5 -3 -12 -3 -15 1 -2 5 -3 3 -1 -3 1
-6 -2 -17 -8 -25 -8 -11 -9 -10 -4 4 3 11 0 20 -9 23 -8 4 -13 9 -11 13 3 4
-6 7 -20 7 -16 0 -23 -4 -20 -13 4 -11 1 -11 -14 -3 -11 6 -20 13 -20 16 0 3
6 2 13 -2 6 -4 8 -3 4 1 -10 12 -38 15 -31 4 9 -14 -6 -10 -23 6 -12 12 -18
13 -29 4 -8 -7 -17 -9 -21 -6 -3 4 -12 2 -20 -5 -11 -9 -12 -7 -7 7 6 14 4 16
-7 9 -25 -15 -48 -14 -52 4 -4 13 -5 14 -7 2z m134 -31 c-3 -5 -10 -7 -15 -3
-5 3 -7 10 -3 15 3 5 10 7 15 3 5 -3 7 -10 3 -15z m115 -12 c8 -10 7 -14 -2
-14 -8 0 -14 6 -14 14 0 7 1 13 2 13 2 0 8 -6 14 -13z m461 -232 c0 -2 -9 -3
-19 -2 -11 0 -18 5 -15 9 4 6 34 0 34 -7z m-1660 -358 c0 -7 -4 -6 -10 3 -9
14 -14 7 -11 -13 1 -5 -3 -6 -9 -2 -8 5 -8 11 1 21 12 15 29 10 29 -9z m1927
17 c-3 -3 -12 -4 -19 -1 -8 3 -5 6 6 6 11 1 17 -2 13 -5z m-1986 -128 c-6 -7
-7 -17 -3 -21 4 -5 1 -5 -6 -1 -9 6 -10 11 -3 20 6 7 7 17 3 21 -4 5 -1 5 6 1
9 -6 10 -11 3 -20z m-40 -159 c-6 -8 -7 -18 -3 -22 4 -5 1 -5 -6 -1 -10 6 -10
11 -1 22 6 8 14 14 16 14 3 0 0 -6 -6 -13z m2122 -290 c3 -8 -1 -14 -8 -14 -7
0 -11 6 -8 14 3 7 6 13 8 13 2 0 5 -6 8 -13z m-2106 -142 c0 -8 -4 -12 -9 -9
-5 3 -6 10 -3 15 9 13 12 11 12 -6z m2050 -121 c-3 -3 -12 -4 -19 -1 -8 3 -5
6 6 6 11 1 17 -2 13 -5z m-382 -503 c-3 -6 -11 -11 -16 -11 -5 0 -4 6 3 14 14
16 24 13 13 -3z m-442 -186 c-3 -9 -8 -14 -10 -11 -3 3 -2 9 2 15 9 16 15 13
8 -4z m-269 -10 c3 -8 1 -15 -4 -15 -6 0 -10 7 -10 15 0 8 2 15 4 15 2 0 6 -7
10 -15z"/>
<path d="M990 2334 c0 -8 5 -12 10 -9 6 3 10 10 10 16 0 5 -4 9 -10 9 -5 0
-10 -7 -10 -16z"/>
<path d="M1745 2280 c3 -5 8 -10 11 -10 2 0 4 5 4 10 0 6 -5 10 -11 10 -5 0
-7 -4 -4 -10z"/>
<path d="M1826 2238 c3 -5 10 -6 15 -3 13 9 11 12 -6 12 -8 0 -12 -4 -9 -9z"/>
<path d="M667 2203 c-4 -6 0 -13 8 -17 8 -3 17 -1 20 5 4 5 11 6 17 3 7 -4 8
-2 4 5 -6 9 -11 9 -21 1 -10 -8 -14 -8 -17 2 -3 8 -6 9 -11 1z"/>
<path d="M370 1880 c0 -5 5 -10 11 -10 5 0 7 5 4 10 -3 6 -8 10 -11 10 -2 0
-4 -4 -4 -10z"/>
<path d="M2245 1821 c-3 -5 -2 -12 3 -15 5 -3 9 1 9 9 0 17 -3 19 -12 6z"/>
<path d="M2355 1520 c3 -5 8 -10 11 -10 2 0 4 5 4 10 0 6 -5 10 -11 10 -5 0
-7 -4 -4 -10z"/>
<path d="M205 1240 c-3 -5 -1 -10 4 -10 6 0 11 5 11 10 0 6 -2 10 -4 10 -3 0
-8 -4 -11 -10z"/>
<path d="M404 685 c8 -8 18 -15 22 -15 3 0 1 7 -6 15 -7 8 -17 15 -22 15 -5 0
-3 -7 6 -15z"/>
<path d="M2140 618 c-10 -21 -10 -21 3 -6 8 10 18 14 22 10 5 -4 5 -1 1 6 -10
17 -14 15 -26 -10z"/>
<path d="M450 616 c0 -2 7 -7 16 -10 8 -3 12 -2 9 4 -6 10 -25 14 -25 6z"/>
<path d="M855 309 c-4 -6 -5 -12 -2 -15 2 -3 7 2 10 11 7 17 1 20 -8 4z"/>
<path d="M1700 300 c-10 -19 -10 -20 9 -8 22 13 28 28 11 28 -5 0 -14 -9 -20
-20z"/>
<path d="M1576 247 c3 -10 9 -15 12 -12 3 3 0 11 -7 18 -10 9 -11 8 -5 -6z"/>
<path d="M1076 242 c-3 -5 0 -9 7 -10 7 0 23 -3 36 -6 13 -3 22 -4 20 -2 -2 3
-8 5 -14 6 -5 1 -18 6 -27 11 -9 5 -19 5 -22 1z"/>
</g>
</svg>
