<?xml version="1.0" encoding="utf-8"?>
<!-- Generator: Adobe Illustrator 18.0.0, SVG Export Plug-In . SVG Version: 6.00 Build 0)  -->
<!DOCTYPE svg PUBLIC "-//W3C//DTD SVG 1.1//EN" "http://www.w3.org/Graphics/SVG/1.1/DTD/svg11.dtd">
<svg version="1.1" id="Calque_1" xmlns="http://www.w3.org/2000/svg" xmlns:xlink="http://www.w3.org/1999/xlink" x="0px" y="0px"
	 viewBox="0 0 44.2 44.2" enable-background="new 0 0 44.2 44.2" xml:space="preserve">
<g>
	<path d="M34.4,22.8c-1.4,0-2.4,1-2.4,2.3c0,1.3,1,2.3,2.4,2.3c1.4,0,2.4-1,2.4-2.3C36.8,23.8,35.8,22.8,34.4,22.8z"/>
	<path d="M0,0v44.2h44.2V0H0z M14.8,30c-3.5,0-6.9,0-10.4,0c0-5.1,0-10.1,0-15.1c3.3,0,6.7,0,10,0c0,0.8,0,1.6,0,2.4
		c0,0.1-0.3,0.3-0.5,0.3c-1.9,0-3.7,0-5.6,0c-0.8,0-0.8,0-0.8,0.8c0,0.6,0,1.2,0,1.8c0,0.7,0,0.7,0.7,0.7c1.6,0,3.2,0,4.8,0
		c0.4,0,0.6,0.1,0.6,0.6c0,0.7,0,1.4,0,2.1c-2.1,0-4,0-6,0c0,1.2,0,2.4,0,3.6c0.2,0,0.4,0,0.6,0c2,0,4,0,6,0c0.4,0,0.6,0.1,0.6,0.6
		C14.8,28.5,14.8,29.3,14.8,30z M24.1,29.8c-2.6,0.9-5.1,0.6-7.2-1.4c-0.2-0.2-0.4-0.4-0.6-0.7c-0.1-0.2-0.3-0.4-0.4-0.7
		c0.9-0.5,1.7-1,2.6-1.5c0.2,0.2,0.3,0.4,0.5,0.6c0.9,1.1,2.1,1.5,3.5,1.2c0.6-0.2,1.1-0.5,1.2-1.2c0.1-0.7-0.2-1.2-0.8-1.6
		c-0.6-0.4-1.3-0.6-2-1c-0.8-0.4-1.7-0.8-2.5-1.4c-1.4-1.1-1.9-3-1.3-4.8c0.5-1.6,2-2.7,3.9-2.8c1.9-0.1,3.6,0.4,4.7,2.1
		c0.1,0.1,0.1,0.3,0.2,0.4c-0.8,0.5-1.6,1-2.4,1.6c-0.5-0.7-1-1.3-1.9-1.3c-0.8,0-1.4,0.3-1.5,0.9c-0.2,0.6,0,1.3,0.7,1.7
		c0.6,0.4,1.3,0.6,2,1c1,0.5,2,1,2.8,1.7C27.9,24.9,27.1,28.8,24.1,29.8z M38.7,28.9c-2.3,2.1-6.5,2-8.8-0.1
		c-1.6-1.4-2.1-3.6-1.2-5.8c0.4-1,1-1.9,1.6-2.8c1.2-1.7,2.5-3.3,3.7-5c0.2-0.3,0.5-0.4,0.9-0.4c1.1,0,2.2,0,3.4,0
		c0,0.1,0.1,0.1,0.1,0.2c-1.4,1.8-2.8,3.6-4.2,5.3c0.6,0,1.5-0.1,2.3,0c1.9,0.3,3.3,1.4,3.8,3.4C40.8,25.7,40.3,27.5,38.7,28.9z"/>
</g>
</svg>
