<?xml version="1.0" encoding="utf-8"?>
<!-- Generator: Adobe Illustrator 18.0.0, SVG Export Plug-In . SVG Version: 6.00 Build 0)  -->
<!DOCTYPE svg PUBLIC "-//W3C//DTD SVG 1.1//EN" "http://www.w3.org/Graphics/SVG/1.1/DTD/svg11.dtd">
<svg version="1.1" id="Calque_1" xmlns="http://www.w3.org/2000/svg" xmlns:xlink="http://www.w3.org/1999/xlink" x="0px" y="0px"
	 viewBox="0 0 35.3 35.3" enable-background="new 0 0 35.3 35.3" xml:space="preserve">
<g>
	<path d="M35.3,17.4c0,0.2,0,0.4,0,0.6c-0.2,0.8-0.8,1.4-1.4,2c-4.7,4.7-9.3,9.3-14,14c-0.6,0.6-1.1,1.2-2,1.4c-0.2,0-0.4,0-0.6,0
		c-0.8-0.2-1.4-0.8-2-1.3c-0.6-0.6-1.2-1.2-1.8-1.8C9.5,28,5.4,24,1.3,19.9C0.8,19.3,0.2,18.8,0,18c0-0.2,0-0.5,0-0.7
		c0.2-0.8,0.8-1.3,1.3-1.9c3.2-3.2,6.4-6.4,9.6-9.6c0.1-0.1,0.2-0.2,0.3-0.3c0.1,0.1,0.2,0.2,0.3,0.3c1.1,1.1,2.2,2.2,3.4,3.3
		c0.2,0.2,0.2,0.4,0.2,0.7c-0.3,1.2,0.2,2.3,1.2,3c0.3,0.2,0.4,0.3,0.4,0.7c0,2.9,0,5.8,0,8.7c0,0.4-0.1,0.6-0.4,0.8
		c-1,0.6-1.5,1.8-1.1,3c0.3,1.1,1.3,1.9,2.5,2c1.2,0,2.3-0.7,2.7-1.8c0.4-1.1,0-2.4-1-3.1c-0.3-0.2-0.4-0.4-0.4-0.8
		c0-2.8,0-5.6,0-8.4c0-0.1,0-0.3,0-0.5c0.2,0.2,0.3,0.3,0.4,0.4c0.8,0.8,1.5,1.6,2.3,2.3c0.5,0.5,0.8,0.9,0.7,1.7
		c-0.2,1.1,0.6,2.2,1.7,2.7c1.1,0.5,2.3,0.2,3.1-0.7c0.8-0.9,0.9-2.1,0.3-3.1c-0.6-1-1.7-1.6-2.9-1.3c-0.3,0.1-0.5,0-0.7-0.2
		c-1-1-1.9-2-2.9-2.9c-0.4-0.4-0.8-0.8-0.5-1.4c0-0.1,0-0.2,0-0.3c-0.2-1.9-1.9-2.8-3.3-2.5c-0.2,0-0.4,0-0.5-0.2
		c-1.2-1.2-2.4-2.4-3.6-3.5C13,4,12.9,4,12.9,3.9c0.1-0.1,0.2-0.2,0.3-0.3c0.7-0.7,1.5-1.5,2.2-2.2c0.5-0.6,1.1-1.1,1.9-1.3
		c0.2,0,0.5,0,0.7,0c0.8,0.2,1.3,0.8,1.9,1.3c4.7,4.7,9.4,9.4,14.1,14.1C34.5,16,35.1,16.6,35.3,17.4z"/>
</g>
</svg>
