<?xml version="1.0" encoding="utf-8"?>
<!-- Generator: Adobe Illustrator 18.0.0, SVG Export Plug-In . SVG Version: 6.00 Build 0)  -->
<!DOCTYPE svg PUBLIC "-//W3C//DTD SVG 1.1//EN" "http://www.w3.org/Graphics/SVG/1.1/DTD/svg11.dtd">
<svg version="1.1" id="Calque_1" xmlns="http://www.w3.org/2000/svg" xmlns:xlink="http://www.w3.org/1999/xlink" x="0px" y="0px"
	 viewBox="0 0 37.7 36.8" enable-background="new 0 0 37.7 36.8" xml:space="preserve">
<g>
	<path fill="#010202" d="M35.2,9.4c-1.7-2.9-4-5.2-6.9-6.9c-2.9-1.7-6-2.5-9.5-2.5c-3.4,0-6.6,0.8-9.5,2.5c-2.9,1.7-5.2,4-6.9,6.9
		c-1.7,2.9-2.5,6-2.5,9.5c0,4.1,1.2,7.8,3.6,11.1c2.4,3.3,5.5,5.5,9.3,6.8c0.4,0.1,0.8,0,1-0.2c0.2-0.2,0.3-0.4,0.3-0.7
		c0,0,0-0.5,0-1.3c0-0.8,0-1.6,0-2.2l-0.6,0.1c-0.4,0.1-0.8,0.1-1.4,0.1c-0.5,0-1.1-0.1-1.7-0.2c-0.6-0.1-1.1-0.4-1.6-0.7
		c-0.5-0.4-0.9-0.9-1.1-1.5l-0.2-0.6c-0.2-0.4-0.4-0.8-0.8-1.3c-0.4-0.5-0.7-0.8-1.1-0.9l-0.2-0.1c-0.1-0.1-0.2-0.2-0.3-0.3
		c-0.1-0.1-0.2-0.2-0.2-0.3c0-0.1,0-0.2,0.1-0.3c0.1-0.1,0.4-0.1,0.7-0.1l0.5,0.1c0.3,0.1,0.7,0.3,1.2,0.6c0.5,0.3,0.9,0.8,1.2,1.3
		c0.4,0.7,0.8,1.2,1.4,1.5c0.5,0.4,1.1,0.5,1.6,0.5s1,0,1.4-0.1c0.4-0.1,0.8-0.2,1.1-0.4c0.1-1.1,0.5-1.9,1.2-2.5
		c-0.9-0.1-1.8-0.2-2.5-0.4c-0.7-0.2-1.5-0.5-2.3-1c-0.8-0.4-1.5-1-2-1.6c-0.5-0.7-1-1.5-1.3-2.6c-0.3-1.1-0.5-2.3-0.5-3.7
		c0-2,0.6-3.7,1.9-5.1c-0.6-1.5-0.5-3.2,0.2-5c0.5-0.1,1.2,0,2.1,0.3c0.9,0.4,1.6,0.7,2,0.9c0.4,0.3,0.8,0.5,1,0.7
		c1.5-0.4,3.1-0.6,4.7-0.6c1.6,0,3.2,0.2,4.7,0.6l0.9-0.6c0.6-0.4,1.4-0.8,2.3-1.1c0.9-0.3,1.5-0.4,2-0.3c0.7,1.8,0.8,3.5,0.2,5
		c1.3,1.4,1.9,3.1,1.9,5.1c0,1.4-0.2,2.6-0.5,3.7c-0.3,1.1-0.8,1.9-1.3,2.6c-0.5,0.6-1.2,1.2-2,1.6c-0.8,0.4-1.6,0.8-2.3,1
		c-0.7,0.2-1.6,0.3-2.5,0.4c0.9,0.7,1.3,1.9,1.3,3.5v5.2c0,0.3,0.1,0.5,0.3,0.7c0.2,0.2,0.5,0.3,1,0.2c3.8-1.3,6.9-3.5,9.3-6.8
		c2.4-3.3,3.6-7,3.6-11.1C37.7,15.4,36.8,12.3,35.2,9.4z"/>
</g>
</svg>
