<?xml version="1.0" encoding="utf-8"?>
<!-- Generator: Adobe Illustrator 18.0.0, SVG Export Plug-In . SVG Version: 6.00 Build 0)  -->
<!DOCTYPE svg PUBLIC "-//W3C//DTD SVG 1.1//EN" "http://www.w3.org/Graphics/SVG/1.1/DTD/svg11.dtd">
<svg version="1.1" id="Calque_1" xmlns="http://www.w3.org/2000/svg" xmlns:xlink="http://www.w3.org/1999/xlink" x="0px" y="0px"
	 viewBox="0 0 17.8 39.5" enable-background="new 0 0 17.8 39.5" xml:space="preserve">
<g id="bvy7rG.tif_1_">
	<g>
		<path d="M0,9.8C1,9.2,2.1,9.1,3.3,9c2.4-0.3,4.9-0.3,7.3-0.3c0.3,0,0.5-0.1,0.6-0.4c0.2-1,0.5-2,0.8-3.1c0-0.2,0.1-0.4,0.3-0.5
			c1.4-1.5,2.8-3,4.2-4.4c0.4-0.4,0.6-0.4,1.1,0c0.4,0.4,0.5,0.5,0,1c-1.3,1.4-2.6,2.7-3.9,4.1c-0.2,0.2-0.3,0.4-0.3,0.6
			c-0.2,0.8-0.4,1.6-0.6,2.4c0,0.1,0,0.2-0.1,0.4c0.7,0.1,1.3,0.1,2,0.2c0.8,0.1,1.5,0.3,2.3,0.4c0.2,0,0.4,0.1,0.6,0.2
			c0.1,0.1,0.2,0.2,0.2,0.3c0,0.1-0.1,0.3-0.2,0.3c-0.6,0.2-1.2,0.4-1.8,0.5c-3.4,0.5-6.8,0.5-10.2,0.3c-1.4-0.1-2.7-0.3-4.1-0.5
			C0.9,10.4,0.5,10.2,0,10C0,9.9,0,9.9,0,9.8z M11.4,10.7c0.3-0.1,0.6-0.1,0.9-0.2c0.1,0,0.1-0.2,0.2-0.3c-0.1,0-0.2,0-0.3,0
			c-0.5,0-1,0-1.5,0c-0.1,0-0.2,0-0.3,0c0.1,0.1,0.1,0.2,0.2,0.2C10.8,10.5,11.1,10.6,11.4,10.7z"/>
		<path d="M16.4,22.3c-0.1,0.9-0.2,1.7-0.3,2.4c-0.2,1.5-0.4,2.9-0.5,4.4c0,0.3-0.2,0.5-0.4,0.5c-0.8,0.2-1.6,0.5-2.4,0.7
			c-3.1,0.6-6.3,0.5-9.4-0.3c0,0,0,0,0,0c-1.3-0.4-1.3-0.4-1.4-1.8c-0.1-1.5-0.3-3-0.4-4.5c0-0.1,0-0.2,0-0.3
			c1.1,0.3,1.8-0.5,2.5-1.1c-0.2,0.6-0.3,1.1-0.4,1.7c0,0.2,0.1,0.4,0.2,0.6c0.2-0.1,0.5-0.2,0.5-0.4c0.5-1.5,1-3.1,1.4-4.6
			c0.1-0.3,0.1-0.6-0.3-0.6c-0.3-0.1-0.5,0.2-0.6,0.4c-0.2,1-0.8,1.9-1.6,2.6c-0.2,0.2-0.4,0.3-0.6,0.4C2.3,22.6,2,22.4,2,22
			c0-0.4,0-0.8,0.1-1.2c0.3-1.2,0.8-2.2,1.6-3.1C3.8,17.4,4,17.2,4.3,17c0.6-0.5,1-0.4,1.4,0.2c0,0,0,0,0,0.1
			c0.2,0.2,0.3,0.5,0.6,0.4c0.2-0.1,0.3-0.5,0.2-0.8C6.1,16,5.1,15.6,4.3,16c-0.5,0.3-1,0.7-1.4,1.1c-0.7,0.7-1.1,1.6-1.5,2.5
			c0,0.1-0.1,0.2-0.2,0.3c-0.3-3-0.7-6.1-1-9.2c2.9,0.8,5.8,0.9,8.7,0.9c2.9,0,5.9-0.1,8.8-0.9c-0.1,0.7-0.1,1.4-0.2,2
			c-0.2,2.1-0.5,4.2-0.7,6.4c-0.1,0.5-0.1,1.1-0.2,1.6c0,0.3-0.1,0.5-0.4,0.7c-0.4,0.3-0.8,0.6-1.2,0.9c-0.1,0.1-0.3,0.2-0.4,0.2
			c0,0-0.1-0.1-0.1-0.1c0.1-0.1,0.2-0.2,0.2-0.4c0.3-0.5,0.7-1,1-1.5c0.2-0.3,0.3-0.6,0-0.9c-0.3-0.3-0.7-0.3-1-0.2
			c-0.4,0.2-0.7,0.4-1,0.6c0-0.1,0-0.1,0-0.2c-0.1-0.1-0.1-0.3-0.2-0.3c-0.1,0-0.3,0-0.4,0.1c-0.2,0.2-0.3,0.5-0.4,0.8
			c-0.1,0.4-0.3,0.7-0.6,0.9c-0.3,0.3-0.6,0.5-1,0.7c-0.1,0.1-0.3,0.1-0.6,0.2c0.1-0.4,0.2-0.6,0.3-0.8c0.6-1.4,1.2-2.9,1.8-4.3
			c0-0.1,0.1-0.2,0.1-0.3c0.1-0.2,0.1-0.5-0.2-0.6c-0.2-0.1-0.5,0-0.6,0.2c-0.1,0.1-0.1,0.2-0.2,0.4c-0.6,1.6-1.3,3.3-1.9,4.9
			c-0.1,0.2-0.5,0.4-0.7,0.6C9,22.6,8.9,22.4,9,22.2c0.2-0.5,0.4-1.1,0.5-1.6c0.1-0.2,0.2-0.4,0.2-0.6c0-0.2-0.1-0.4-0.2-0.5
			c-0.1,0-0.3,0.1-0.5,0.2c-0.1,0.1-0.1,0.3-0.2,0.5c-0.2,0.5-0.5,1-0.8,1.5C8,21.8,7.8,22,7.6,22.1c-0.2,0.1-0.5,0.2-0.7,0.3
			c0-0.2-0.1-0.5,0-0.7c0.2-0.5,0.4-1,0.7-1.5c0.1-0.2,0.3-0.5-0.1-0.7c-0.3-0.1-0.6,0-0.7,0.3c-0.3,0.8-0.7,1.7-1,2.6
			c-0.2,0.7,0.2,1.1,0.9,1c0.6-0.1,1-0.4,1.4-0.9c0,0.4,0,0.9,0.5,0.9c0.4,0,0.7-0.2,1.1-0.4c0.5,0.6,0.9,0.5,2.2-0.4
			c-0.3,0.6-0.6,1.2-0.8,1.8c-0.1,0.3-0.3,0.6-0.3,0.9c0,0.1,0.1,0.4,0.2,0.5c0.1,0.1,0.4,0,0.5-0.1c0.2-0.1,0.3-0.4,0.4-0.6
			c0.4-0.9,0.7-1.9,1.1-2.7c0.3-0.6,0.8-1.1,1.2-1.7c0.2-0.2,0.5-0.2,0.7-0.4c0,0,0.1,0.1,0.1,0.1c-0.1,0.2-0.2,0.4-0.3,0.5
			c-0.3,0.4-0.7,0.8-1,1.3c-0.2,0.2-0.3,0.5-0.1,0.8c0.2,0.3,0.5,0.4,0.8,0.3c0.4-0.1,0.8-0.3,1.2-0.5
			C15.9,22.7,16.1,22.5,16.4,22.3z"/>
		<path d="M2.6,30.3c4.2,1.2,8.3,1.2,12.5,0c-0.3,0.5-0.5,0.9-0.7,1.3c-0.1,0.3-0.3,0.6-0.3,0.9c-0.1,1.6-0.2,3.2-0.3,4.8
			c0,0.3,0,0.6-0.1,0.9c-0.1,0.2-0.2,0.4-0.4,0.5c-0.6,0.2-1.2,0.4-1.8,0.5c-2,0.3-4.1,0.3-6.1-0.2c-1.2-0.3-1.3-0.4-1.4-1.7
			c-0.1-1.6-0.2-3.2-0.3-4.8c0-0.3-0.1-0.6-0.2-0.8C3.2,31.3,2.9,30.8,2.6,30.3z"/>
	</g>
</g>
</svg>
