<?xml version="1.0" encoding="utf-8"?>
<!-- Generator: Adobe Illustrator 18.0.0, SVG Export Plug-In . SVG Version: 6.00 Build 0)  -->
<!DOCTYPE svg PUBLIC "-//W3C//DTD SVG 1.1//EN" "http://www.w3.org/Graphics/SVG/1.1/DTD/svg11.dtd">
<svg version="1.1" id="Calque_1" xmlns="http://www.w3.org/2000/svg" xmlns:xlink="http://www.w3.org/1999/xlink" x="0px" y="0px"
	 viewBox="0 0 36.5 36.5" enable-background="new 0 0 36.5 36.5" xml:space="preserve">
<g>
	<path id="LinkedIn__x28_alt_x29_" fill="#010202" d="M33.8,0H2.7C1.2,0,0,1.2,0,2.6v31.3c0,1.4,1.2,2.6,2.7,2.6h31.1
		c1.5,0,2.7-1.2,2.7-2.6V2.6C36.5,1.2,35.3,0,33.8,0z M11.1,30.5H5.5V14.1h5.5V30.5z M8.3,11.8L8.3,11.8c-1.9,0-3.1-1.3-3.1-2.8
		c0-1.6,1.2-2.8,3.1-2.8c1.9,0,3,1.2,3.1,2.8C11.4,10.6,10.2,11.8,8.3,11.8z M30.9,30.5h-5.5v-8.8c0-2.2-0.8-3.7-2.8-3.7
		c-1.5,0-2.4,1-2.8,2c-0.1,0.4-0.2,0.8-0.2,1.3v9.2h-5.5c0,0,0.1-14.9,0-16.5h5.5v2.3c0.7-1.1,2-2.7,5-2.7c3.6,0,6.3,2.4,6.3,7.4
		L30.9,30.5L30.9,30.5z M19.6,16.5C19.6,16.4,19.6,16.4,19.6,16.5L19.6,16.5L19.6,16.5z"/>
</g>
</svg>
