<?xml version="1.0" encoding="utf-8"?>
<!-- Generator: Adobe Illustrator 18.0.0, SVG Export Plug-In . SVG Version: 6.00 Build 0)  -->
<!DOCTYPE svg PUBLIC "-//W3C//DTD SVG 1.1//EN" "http://www.w3.org/Graphics/SVG/1.1/DTD/svg11.dtd">
<svg version="1.1" id="Calque_1" xmlns="http://www.w3.org/2000/svg" xmlns:xlink="http://www.w3.org/1999/xlink" x="0px" y="0px"
	 viewBox="0 0 42.9 33.7" enable-background="new 0 0 42.9 33.7" xml:space="preserve">
<g>
	<g>
		<path fill="#010202" d="M4.1,10.4c0.5,0.4,2.2,1.5,4.9,3.4c2.7,1.9,4.8,3.3,6.3,4.4c0.2,0.1,0.5,0.4,1,0.7
			c0.5,0.4,0.9,0.7,1.3,0.9c0.3,0.2,0.8,0.5,1.2,0.8c0.5,0.3,0.9,0.5,1.4,0.6c0.4,0.1,0.8,0.2,1.2,0.2h0h0c0.4,0,0.8-0.1,1.2-0.2
			c0.4-0.1,0.9-0.4,1.4-0.6c0.5-0.3,0.9-0.5,1.2-0.8c0.3-0.2,0.8-0.5,1.3-0.9c0.5-0.4,0.9-0.6,1-0.7c1.5-1,5.2-3.6,11.2-7.8
			c1.2-0.8,2.1-1.8,2.9-2.9c0.8-1.1,1.2-2.4,1.2-3.6c0-1.1-0.4-2-1.1-2.7C41,0.4,40.1,0,39,0H3.8C2.6,0,1.7,0.4,1,1.2
			C0.3,2.1,0,3.1,0,4.4c0,1,0.4,2.1,1.3,3.3C2.2,8.8,3.1,9.7,4.1,10.4z"/>
		<path fill="#010202" d="M40.5,12.9c-5.2,3.5-9.2,6.3-11.9,8.3c-0.9,0.7-1.6,1.2-2.2,1.6c-0.6,0.4-1.3,0.8-2.3,1.1
			c-0.9,0.4-1.8,0.6-2.6,0.6h0h0c-0.8,0-1.7-0.2-2.6-0.6c-0.9-0.4-1.7-0.8-2.3-1.1c-0.6-0.4-1.3-0.9-2.2-1.6
			c-2.2-1.6-6.1-4.3-11.9-8.3c-0.9-0.6-1.7-1.3-2.4-2.1v19c0,1.1,0.4,2,1.1,2.7c0.7,0.7,1.7,1.1,2.7,1.1h35.2c1.1,0,2-0.4,2.7-1.1
			c0.7-0.7,1.1-1.7,1.1-2.7v-19C42.2,11.6,41.4,12.3,40.5,12.9z"/>
	</g>
</g>
</svg>
