<?xml version="1.0" encoding="utf-8"?>
<!-- Generator: Adobe Illustrator 18.0.0, SVG Export Plug-In . SVG Version: 6.00 Build 0)  -->
<!DOCTYPE svg PUBLIC "-//W3C//DTD SVG 1.1//EN" "http://www.w3.org/Graphics/SVG/1.1/DTD/svg11.dtd">
<svg version="1.1" id="Calque_1" xmlns="http://www.w3.org/2000/svg" xmlns:xlink="http://www.w3.org/1999/xlink" x="0px" y="0px"
	 viewBox="0 0 94.5 26.7" enable-background="new 0 0 94.5 26.7" xml:space="preserve">
<g>
	<path fill="#010202" d="M14.9,14.2c0-0.3-0.2-0.6-0.4-0.7L7.8,9.6C7.7,9.6,7.6,9.5,7.5,9.5H7.4c-0.1,0-0.2,0.1-0.3,0.1l-6.7,3.8
		C0.2,13.6,0,13.9,0,14.2v10.3c0,0.1,0.1,0.3,0.2,0.3s0.3,0.1,0.4,0l4-2.3c0.2-0.2,0.4-0.4,0.4-0.7V17c0-0.3,0.2-0.5,0.4-0.7l1.7-1
		c0.1-0.1,0.3-0.1,0.4-0.1s0.3,0.1,0.4,0.1l1.7,1c0.2,0.1,0.4,0.4,0.4,0.7v4.8c0,0.3,0.2,0.5,0.4,0.7l4,2.3c0.1,0.1,0.3,0.1,0.4,0
		c0.1-0.1,0.2-0.2,0.2-0.3L14.9,14.2z"/>
	<path fill="#010202" d="M50.3,0C50.1,0,50,0,49.9,0c-0.1,0.1-0.2,0.2-0.2,0.3v10.2c0,0.1-0.1,0.2-0.1,0.2c-0.1,0.1-0.2,0.1-0.3,0
		l-1.7-0.9c-0.2-0.1-0.6-0.1-0.8,0l-6.6,3.8c-0.2,0.1-0.4,0.4-0.4,0.7v7.7c0,0.3,0.2,0.5,0.4,0.7l6.6,3.8c0.2,0.1,0.6,0.1,0.8,0
		l6.6-3.8c0.2-0.1,0.4-0.4,0.4-0.7V2.9c0-0.3-0.2-0.6-0.4-0.7L50.3,0z M49.6,19.5c0,0.1-0.1,0.1-0.1,0.2L47.2,21
		c-0.1,0.1-0.1,0.1-0.2,0l-2.3-1.3c-0.1-0.1-0.1-0.1-0.1-0.2v-2.6c0-0.1,0.1-0.1,0.1-0.2l2.3-1.3c0.1-0.1,0.1-0.1,0.2,0l2.3,1.3
		c0.1,0.1,0.1,0.1,0.1,0.2V19.5z"/>
	<path fill="#010202" d="M74,16.8c0.2-0.1,0.4-0.4,0.4-0.7v-1.9c0-0.3-0.2-0.5-0.4-0.7l-6.6-3.8c-0.2-0.1-0.6-0.1-0.8,0L60,13.6
		c-0.2,0.1-0.4,0.4-0.4,0.7V22c0,0.3,0.2,0.6,0.4,0.7l6.6,3.8c0.2,0.1,0.5,0.1,0.8,0l4-2.2c0.1-0.1,0.2-0.2,0.2-0.3
		c0-0.1-0.1-0.3-0.2-0.3l-6.7-3.8c-0.1-0.1-0.2-0.2-0.2-0.3v-2.4c0-0.1,0.1-0.3,0.2-0.3l2.1-1.2c0.1-0.1,0.3-0.1,0.4,0l2.1,1.2
		c0.1,0.1,0.2,0.2,0.2,0.3v1.9c0,0.1,0.1,0.3,0.2,0.3c0.1,0.1,0.3,0.1,0.4,0L74,16.8z"/>
	<path fill="#010202" d="M26.9,9.7c0.2-0.1,0.6-0.1,0.8,0l6.6,3.8c0.2,0.1,0.4,0.4,0.4,0.7v7.7c0,0.3-0.2,0.5-0.4,0.7l-6.6,3.8
		c-0.2,0.1-0.6,0.1-0.8,0l-6.6-3.8c-0.2-0.1-0.4-0.4-0.4-0.7v-7.7c0-0.3,0.2-0.5,0.4-0.7L26.9,9.7z"/>
	<path fill="#010202" d="M86.9,26.5c-0.2,0-0.5-0.1-0.6-0.2l-2.1-1.2c-0.3-0.2-0.2-0.2-0.1-0.3c0.4-0.1,0.5-0.2,0.9-0.4
		c0.1,0,0.1,0,0.2,0l1.6,0.9c0.1,0.1,0.1,0.1,0.2,0l6.3-3.6c0.1-0.1,0.1-0.1,0.1-0.2v-7.1c0-0.1-0.1-0.1-0.1-0.2L87,10.6
		c-0.1-0.1-0.1-0.1-0.2,0l-6.3,3.6c-0.1,0.1-0.1,0.1-0.1,0.2v7.2c0,0.1,0.1,0.1,0.1,0.2l1.7,1c0.9,0.5,1.5-0.1,1.5-0.6V15
		c0-0.1,0.1-0.2,0.2-0.2h0.8c0.1,0,0.2,0.1,0.2,0.2v7.1c0,1.2-0.7,2-1.9,2c-0.3,0-0.6,0-1.5-0.4L80,22.8c-0.4-0.2-0.6-0.7-0.6-1.2
		v-7.2c0-0.5,0.2-0.9,0.6-1.2l6.3-3.6c0.4-0.2,0.9-0.2,1.3,0l6.3,3.6c0.4,0.2,0.6,0.7,0.6,1.2v7.2c0,0.5-0.2,0.9-0.6,1.2l-6.3,3.6
		C87.3,26.4,87.1,26.5,86.9,26.5z"/>
	<path fill="#010202" d="M88.8,21.5c-2.7,0-3.3-1.3-3.3-2.3c0-0.1,0.1-0.2,0.2-0.2h0.8c0.1,0,0.2,0.1,0.2,0.2
		c0.1,0.8,0.5,1.2,2.1,1.2c1.3,0,1.9-0.3,1.9-1c0-0.4-0.2-0.7-2.2-0.9c-1.7-0.2-2.8-0.5-2.8-1.9c0-1.3,1-2,2.8-2c2,0,3,0.7,3.1,2.2
		c0,0.1,0,0.1-0.1,0.1c-0.1,0.1-0.1,0.1-0.1,0.1h-0.8c-0.1,0-0.2-0.1-0.2-0.1c-0.2-0.9-0.6-1.2-2-1.2c-1.5,0-1.6,0.5-1.6,0.9
		c0,0.5,0.2,0.6,2.1,0.9c1.9,0.2,2.8,0.6,2.8,2C91.9,20.7,90.8,21.5,88.8,21.5z"/>
	<path fill="#010202" d="M66.9,16.4c0.1,0,0.1,0,0.2,0l1.3,0.8c0.1,0,0.1,0.1,0.1,0.1v1.5c0,0.1-0.1,0.1-0.1,0.1L67,19.6
		c-0.1,0-0.1,0-0.2,0l-1.3-0.8c-0.1,0-0.1-0.1-0.1-0.1v-1.5c0-0.1,0.1-0.1,0.1-0.1L66.9,16.4z"/>
</g>
</svg>
