<?xml version="1.0" encoding="utf-8"?>
<!-- Generator: Adobe Illustrator 18.0.0, SVG Export Plug-In . SVG Version: 6.00 Build 0)  -->
<!DOCTYPE svg PUBLIC "-//W3C//DTD SVG 1.1//EN" "http://www.w3.org/Graphics/SVG/1.1/DTD/svg11.dtd">
<svg version="1.1" id="Calque_1" xmlns="http://www.w3.org/2000/svg" xmlns:xlink="http://www.w3.org/1999/xlink" x="0px" y="0px"
	 viewBox="0 0 61.7 31.3" enable-background="new 0 0 61.7 31.3" xml:space="preserve">
<g id="dXH1GH.tif_1_">
	<g>
		<path d="M30,0c0.6,0,1.2,0,1.7,0c0.3,0,0.7,0.1,1,0.1c4.6,0.1,9.1,0.8,13.5,2c3.9,1.1,7.7,2.7,10.9,5.3c2,1.6,3.6,3.6,4.3,6.2
			c0.1,0.6,0.2,1.1,0.3,1.7c0,0.2,0,0.4,0,0.6c-0.1,0.5-0.2,1.1-0.3,1.6c-0.7,2.6-2.2,4.5-4.2,6.1c-2.6,2.2-5.6,3.6-8.8,4.7
			c-5.2,1.8-10.6,2.6-16,2.8c-6,0.1-11.8-0.5-17.5-2.3c-3.8-1.2-7.3-2.7-10.4-5.3c-2.3-1.9-3.9-4.2-4.3-7.2c0-0.1-0.1-0.1-0.1-0.2
			c0-0.4,0-0.7,0-1.1c0-0.1,0.1-0.3,0.1-0.4c0.3-1.9,1.1-3.6,2.3-5.1c1.7-2,3.8-3.5,6.2-4.8C14.1,2,20,0.8,26.1,0.3
			C27.4,0.2,28.7,0.1,30,0z M40.6,8.3c-1.1,5.5-2.2,11.1-3.2,16.7c1.3,0,2.4,0,3.6,0c0.3-1.3,0.5-2.7,0.8-4c0.1-0.4,0.2-0.5,0.6-0.5
			c1.1,0,2.2,0,3.2,0c4.2-0.1,6.9-2.3,7.6-6.1c0.7-3.4-0.9-5.8-4.3-6.1C46.2,8.1,43.4,8.3,40.6,8.3z M13.1,20.6c0.8,0,1.5,0,2.2,0
			c1,0,2.1,0,3.1-0.2c3.4-0.4,6.1-3.6,6.1-7.4c0-2.4-1.2-4-3.6-4.6c-0.7-0.2-1.4-0.2-2-0.2c-2.2,0-4.4,0-6.6,0c-0.2,0-0.4,0-0.6,0
			c-1.1,5.6-2.2,11.2-3.3,16.8c1.1,0,2.1,0,3.1,0c0.4,0,0.6-0.1,0.6-0.5C12.6,23.2,12.9,21.9,13.1,20.6z M30.8,3.8
			c-1.1,0-2.1,0-3.1,0c-0.4,0-0.6,0.2-0.6,0.6c-0.8,4.4-1.7,8.8-2.6,13.3c-0.2,1-0.4,2-0.6,3c1.1,0,2,0,3,0c0.4,0,0.6-0.1,0.7-0.6
			c0.5-2.9,1.1-5.7,1.7-8.6c0.1-0.3,0.1-0.5,0.5-0.5c1.1,0,2.1,0,3.2,0.1c1.3,0.1,1.7,0.6,1.4,1.9c-0.2,1.3-0.5,2.6-0.8,3.9
			c-0.2,1.2-0.5,2.5-0.7,3.8c1.2,0,2.4,0,3.6,0c0-0.1,0.1-0.1,0.1-0.2c0.5-2.7,1.1-5.5,1.6-8.2c0.3-2.1-0.5-3.4-2.6-3.7
			c-1.6-0.2-3.2-0.2-4.8-0.3c-0.2,0-0.5,0-0.8,0C30.2,6.7,30.5,5.3,30.8,3.8z"/>
		<path d="M43.7,10.8c1.4,0.1,2.7,0,3.9,0.2c1.3,0.2,1.9,0.9,1.8,2.2c0,0.5-0.1,1-0.2,1.5c-0.5,2-1.5,3-3.6,3.2
			c-1.1,0.1-2.2,0-3.4,0C42.8,15.6,43.2,13.2,43.7,10.8z"/>
		<path d="M13.6,18c0.5-2.5,0.9-4.8,1.4-7.2c1.4,0.1,2.7,0.1,4.1,0.2c1.2,0.1,1.8,0.9,1.7,2.1c-0.1,1-0.3,1.9-0.7,2.8
			c-0.5,1.2-1.5,1.7-2.7,1.9C16.2,18,15,18,13.6,18z"/>
	</g>
</g>
</svg>
