<?xml version="1.0" encoding="utf-8"?>
<!-- Generator: Adobe Illustrator 18.0.0, SVG Export Plug-In . SVG Version: 6.00 Build 0)  -->
<!DOCTYPE svg PUBLIC "-//W3C//DTD SVG 1.1//EN" "http://www.w3.org/Graphics/SVG/1.1/DTD/svg11.dtd">
<svg version="1.1" id="Calque_1" xmlns="http://www.w3.org/2000/svg" xmlns:xlink="http://www.w3.org/1999/xlink" x="0px" y="0px"
	 viewBox="0 0 55.5 41.6" enable-background="new 0 0 55.5 41.6" xml:space="preserve">
<g>
	<path d="M0,16.2c0.5-1.8,1.3-3.4,2.4-4.8C4.3,8.9,6.6,7,9.1,5.5c3.6-2.2,7.5-4.1,11.7-5c3.5-0.7,7-0.8,10.3,0.7
		c3,1.3,4.4,3.9,3.7,7.1c-0.7,3.8-3,6.5-6.3,8.5c-3.5,2.1-7.3,2.8-11.4,2.3c-1.5-0.2-2.7-0.8-3.7-1.9c-0.3-0.3-0.5-0.8-0.7-1.2
		c0-0.1,0-0.3,0.1-0.4c0-0.1,0.3,0,0.4,0.1c1.7,1.8,3.9,2,6.2,1.7c4-0.5,7.5-2.1,10.2-5.1c1-1.1,1.8-2.4,2.1-3.8
		c0.4-2.2-0.4-3.6-2.5-4.3c-2.2-0.7-4.4-0.7-6.6-0.3c-6.1,1.2-11.3,4-15.8,8.2c-1.2,1.1-2,2.4-2.5,3.9c-0.7,2.5,0.2,4.6,2.1,6.2
		c1.3,1.2,2.7,2.2,4,3.3c0.7,0.6,1.4,1.2,2.1,1.8c0.3,0.2,0.4,0.3,0.7,0.1c1.6-0.9,3.3-1.8,4.9-2.7c0.2-0.1,0.3-0.3,0.5-0.4
		c0.8-1,1.8-1.9,3-2.5c0.1-0.1,0.2-0.1,0.3-0.2c2-0.9,3.3,0.1,3.2,2.2c0,0.3,0,0.5-0.1,0.9c0.2-0.1,0.3-0.1,0.4-0.1
		c0.9-0.2,1.5,0.3,1.3,1.3c-0.4,1.5-0.8,3.1-1.2,4.6c-0.2,0.7-0.2,1.4-0.3,2.1c0.1,0,0.2,0.1,0.3,0.1c0.2-0.4,0.5-0.8,0.6-1.2
		c1.5-3.3,3-6.6,4.5-10c0.2-0.4,0.2-0.8,0.3-1.2c0.1-0.5,0.4-0.8,0.9-0.9c0.7-0.1,1.3-0.1,2-0.1c0.6,0,0.8,0.4,0.6,1
		c-0.4,1.2-0.7,2.4-0.5,3.6c0.2,0.8,0.4,1.5,0.7,2.3c0.1,0,0.2,0,0.2,0c0.8-1.5,1.7-2.9,2.4-4.4c0.5-1.1,0.9-2.2,1.2-3.3
		c0.1-0.4,0.4-0.7,0.8-0.7c0.7-0.1,1.4-0.2,2.1-0.1c0.7,0.1,0.8,0.3,0.6,1c-0.4,1.3-0.8,2.6-0.4,3.9c0.3,0.9,0.7,1.8,1,2.6
		c1.4-0.3,2.7-0.7,4-0.9c1.7-0.2,3.4-0.1,5,0.6c2,0.9,3.3,2.4,3.9,4.5c0,0.5,0,1,0,1.6c-0.4,1.1-1,2.1-2.2,2.6
		c-0.3,0.1-0.6,0.1-0.9,0.1c0.2-0.2,0.3-0.5,0.5-0.6c1.4-1,1.7-2.3,1-3.8c-0.5-1-1.2-1.7-2.2-2.2c-2.3-1.1-4.7-1.2-7.2-0.7
		c-0.4,0.1-0.8,0.2-1.2,0.4c0.1,0.3,0.2,0.5,0.2,0.7c0.3,1.1,0.4,2.3-0.4,3.3c-1,1.4-2.5,2.3-4.2,2.7c-1.1,0.3-1.9-0.4-1.7-1.5
		c0.1-0.8,0.3-1.6,0.8-2.3c0.7-1,1.5-2,2.3-2.9c-0.5-1.3-0.9-2.7-1.4-4.1c-0.8,1.3-1.5,2.7-2.3,3.9c-0.7,0.9-0.9,1.7-0.5,2.9
		c0.6,1.6,0.1,3.1-1.3,4.3c-1.1,0.9-2.5,1.5-3.9,1.6c-0.6,0-1.4,0.2-1.7-0.5c-0.3-0.7,0.2-1.2,0.6-1.7c1-1.3,2.1-2.6,3.1-3.9
		c0.1-0.2,0.1-0.6,0.1-0.8c-0.4-1.2-0.9-2.4-1.3-3.7c-0.1-0.1-0.1-0.3-0.2-0.5c-0.1,0.3-0.2,0.6-0.3,0.8c-1.2,2.4-2.3,4.9-3.5,7.3
		c-0.5,1.1-1.3,2.1-2,3.1c-0.4,0.5-1,0.9-1.7,0.6c-0.7-0.2-0.9-0.8-1-1.5c-0.1-0.8-0.1-1.7-0.2-2.5c-0.1,0.1-0.1,0.3-0.2,0.5
		c-0.6,1.1-1.1,2.3-1.7,3.3c-0.8,1.3-2.5,1.2-3.3,0c-0.9-1.4-1.4-3-1.2-4.7c0.1-1.2,0.3-2.5,0.5-3.8c-0.9,0.5-1.8,1-2.7,1.6
		c-0.1,0.1-0.1,0.4-0.1,0.5c1.4,3.9,0,8.4-3.4,10.8c-1.2,0.8-2.5,1.2-3.8,1.6c-0.7,0-1.4,0-2.1,0c-0.1,0-0.1-0.1-0.2-0.1
		C3,41.4,2.3,40.4,2,39c-0.5-2.1,0.1-4,1.7-5.4c1.2-1.1,2.6-2.1,3.9-3.1c1-0.7,2.1-1.3,3.3-1.9c-0.2-0.2-0.4-0.3-0.5-0.5
		c-1.3-0.9-2.6-1.8-3.8-2.7c-2.8-2-5.5-4.1-6.5-7.7C0,17.2,0,16.7,0,16.2z M12.2,29.8c-0.1,0-0.2,0-0.3,0.1
		c-1.6,1.2-3.3,2.3-4.9,3.5c-1,0.8-1.6,1.9-1.8,3.2c-0.2,1.5,0.5,2.2,2,1.9c1.6-0.4,2.8-1.3,3.8-2.7C12.4,34,12.8,32,12.2,29.8z
		 M19.1,30.9c0.1,0.6,0.2,1.2,0.4,1.8c0,0.2,0.2,0.4,0.3,0.4c0.2,0,0.4-0.2,0.5-0.3c0.1-0.2,0.3-0.3,0.3-0.5c0.7-1.6,1.4-3.2,2-4.9
		c0.4-1.1,0.7-2.3,1-3.5c0.1-0.6-0.2-0.9-0.7-0.6c-0.5,0.3-1.1,0.6-1.4,1.1C20,26.4,19.2,28.5,19.1,30.9z M39.1,31.4
		c1.8-0.4,2.8-2.3,2.1-3.8C40.2,28.7,39.4,29.8,39.1,31.4z M33.9,30.2c-0.9,1-1.7,2-2.6,3C32.6,33,34,31.4,33.9,30.2z"/>
</g>
</svg>
