<?xml version="1.0" encoding="utf-8"?>
<!-- Generator: Adobe Illustrator 18.0.0, SVG Export Plug-In . SVG Version: 6.00 Build 0)  -->
<!DOCTYPE svg PUBLIC "-//W3C//DTD SVG 1.1//EN" "http://www.w3.org/Graphics/SVG/1.1/DTD/svg11.dtd">
<svg version="1.1" id="Calque_1" xmlns="http://www.w3.org/2000/svg" xmlns:xlink="http://www.w3.org/1999/xlink" x="0px" y="0px"
	 viewBox="0 0 38.5 44.9" enable-background="new 0 0 38.5 44.9" xml:space="preserve">
<path fill="#010202" d="M12.8,41.1v-2.1l-1.3-1.6l-1-0.3l-0.6-1l-1.1-0.3l-1.1-1.3H5.3L3,35.2l-0.3,0.9l-1.5,1.6L0,39.9v1.7L1.2,43
	l1.7,0.5l1.1,1.3l4.5-0.4l1.4-0.8l0.9-0.2l2.5-1.2L12.8,41.1z M5.3,40.3c-0.3,0-0.6-0.3-0.6-0.6c0-0.3,0.3-0.6,0.6-0.6
	c0.3,0,0.6,0.3,0.6,0.6C5.9,40,5.7,40.3,5.3,40.3z M7,40.3c-0.3,0-0.6-0.3-0.6-0.6c0-0.3,0.3-0.6,0.6-0.6c0.3,0,0.6,0.3,0.6,0.6
	C7.5,40,7.3,40.3,7,40.3z"/>
<path fill="#010202" d="M37.7,25.6V20L36,17.5L35,14.7l-2.5-2.9l-0.4-2.5l-1-2.7L29,5.2l-2.3-2l-0.8-2.3L24.6,0l-2.3,1l-1.6,2.4
	L19,4.1l-2.2,2.8l-0.5,2L15.3,11v1.3l-0.9,1.2l-1.5,2.3v2.1l-2.4,5.3l-0.7,3.4l0.6,3.7V32l3.8,4.5l2.8,1.6v1.3l2,2.1h6.7l1.6-1
	l2-0.7l2.5-2.1h1.3l2.3-1.9l0.3-1.1l2.9-2.3v-3.3L37.7,25.6z M22.7,21.2c-0.6,0-1.1-0.5-1.1-1.1c0-0.6,0.5-1.1,1.1-1.1
	c0.6,0,1.1,0.5,1.1,1.1C23.8,20.8,23.3,21.2,22.7,21.2z M25.6,21.2c-0.6,0-1.1-0.5-1.1-1.1c0-0.6,0.5-1.1,1.1-1.1
	c0.6,0,1.1,0.5,1.1,1.1C26.7,20.8,26.2,21.2,25.6,21.2z"/>
</svg>
