<?xml version="1.0" encoding="utf-8"?>
<!-- Generator: Adobe Illustrator 18.0.0, SVG Export Plug-In . SVG Version: 6.00 Build 0)  -->
<!DOCTYPE svg PUBLIC "-//W3C//DTD SVG 1.1//EN" "http://www.w3.org/Graphics/SVG/1.1/DTD/svg11.dtd">
<svg version="1.1" id="Calque_1" xmlns="http://www.w3.org/2000/svg" xmlns:xlink="http://www.w3.org/1999/xlink" x="0px" y="0px"
	 viewBox="0 0 39.6 32.2" enable-background="new 0 0 39.6 32.2" xml:space="preserve">
<g>
	<g>
		<path fill="#020203" d="M39.6,3.8c-1.5,0.6-3,1.1-4.7,1.3c1.7-1,3-2.6,3.6-4.5c-1.6,0.9-3.3,1.6-5.2,2C31.8,1,29.7,0,27.4,0
			c-4.5,0-8.1,3.6-8.1,8.1c0,0.6,0.1,1.3,0.2,1.9C12.7,9.6,6.8,6.4,2.8,1.5C2.1,2.7,1.7,4.1,1.7,5.6c0,2.8,1.4,5.3,3.6,6.8
			c-1.3,0-2.6-0.4-3.7-1v0.1c0,3.9,2.8,7.2,6.5,8c-0.7,0.2-1.4,0.3-2.1,0.3c-0.5,0-1-0.1-1.5-0.2c1,3.2,4,5.6,7.6,5.6
			c-2.8,2.2-6.3,3.5-10.1,3.5c-0.7,0-1.3,0-1.9-0.1c3.6,2.3,7.9,3.7,12.4,3.7c14.9,0,23.1-12.4,23.1-23.1l0-1.1
			C37.1,6.9,38.5,5.4,39.6,3.8z"/>
	</g>
</g>
</svg>
