<?xml version="1.0" encoding="utf-8"?>
<!-- Generator: Adobe Illustrator 18.0.0, SVG Export Plug-In . SVG Version: 6.00 Build 0)  -->
<!DOCTYPE svg PUBLIC "-//W3C//DTD SVG 1.1//EN" "http://www.w3.org/Graphics/SVG/1.1/DTD/svg11.dtd">
<svg version="1.1" id="Calque_1" xmlns="http://www.w3.org/2000/svg" xmlns:xlink="http://www.w3.org/1999/xlink" x="0px" y="0px"
	 viewBox="0 0 68.8 30.8" enable-background="new 0 0 68.8 30.8" xml:space="preserve">
<g id="OpenGL_1_">
	<g>
		<g>
			<path fill="#010202" d="M54.3,21.6C53.7,21.9,53,22,52.4,22c-1,0-1.9-0.2-2.6-0.5c-0.8-0.3-1.4-0.8-2-1.4
				c-0.5-0.6-0.9-1.3-1.2-2.1s-0.4-1.7-0.4-2.6c0-1,0.1-1.8,0.4-2.7c0.3-0.8,0.7-1.5,1.2-2.1c0.5-0.6,1.2-1.1,2-1.4
				c0.8-0.3,1.7-0.5,2.6-0.5c0.7,0,1.3,0.1,1.9,0.3c0.6,0.2,1.2,0.5,1.7,0.9c0.5,0.4,0.9,0.9,1.2,1.4c0.3,0.6,0.5,1.2,0.6,1.9h-2.7
				c-0.2-0.7-0.5-1.3-1-1.6c-0.5-0.4-1.1-0.5-1.7-0.5c-0.6,0-1.2,0.1-1.6,0.4c-0.4,0.2-0.8,0.6-1.1,1c-0.3,0.4-0.5,0.9-0.6,1.4
				c-0.1,0.5-0.2,1.1-0.2,1.6c0,0.5,0.1,1.1,0.2,1.6c0.1,0.5,0.3,1,0.6,1.4c0.3,0.4,0.6,0.7,1.1,1c0.4,0.2,1,0.4,1.6,0.4
				c0.9,0,1.7-0.2,2.2-0.7c0.5-0.5,0.8-1.2,0.9-2h-2.8v-2.1H58v6.9h-1.8l-0.3-1.5C55.4,20.9,54.9,21.4,54.3,21.6z"/>
			<path fill="#010202" d="M62.6,8.9v10.4h6.2v2.4h-9V8.9H62.6z"/>
		</g>
		<path fill="#010202" d="M49.3,23.3c-4.3,2.6-10.7,4.1-17.9,4.1C18.5,27.4,8,22,8,15.4c0-6.6,10.5-12,23.4-12
			c7.2,0,13.7,1.5,18,4.1C44.7,3.1,36.3,0,26.6,0C11.9,0,0,6.9,0,15.4c0,8.5,11.9,15.4,26.6,15.4C36.2,30.8,44.6,27.7,49.3,23.3z"/>
	</g>
</g>
<g>
	<polygon points="25.7,7.9 23.2,18.6 20.3,7.9 18,7.9 15,18.6 12.6,7.9 10.2,7.9 13.9,21.9 16.1,21.9 19.2,10.9 22.2,21.9 
		24.4,21.9 28.2,7.9 	"/>
	<path d="M31.3,12.3c-2.8,0-4.5,1.9-4.5,5.2c0,1.3,0.4,2.5,1.1,3.3c0.7,0.9,1.8,1.3,3.1,1.3c1.4,0,2.1-0.3,2.5-0.6
		c1.2-0.8,1.6-2.2,1.7-2.6l0-0.2h-1.8l0,0.1c0,0.6-0.8,1.6-2.2,1.6c-2,0-2.4-1.4-2.5-2.7h6.6v-0.1C35.3,14.3,33.9,12.3,31.3,12.3z
		 M28.7,16.4c0.1-1.3,1.1-2.4,2.3-2.4c1.5,0,2.2,0.8,2.4,2.4H28.7z"/>
	<path d="M40.8,12.3c-1,0-1.9,0.4-2.5,1.2V9.2h-1.8v12.6h1.7V21c0.4,0.5,1.1,1.1,2.4,1.1c3.1,0,4.2-2.8,4.2-5.2
		C44.8,14.2,43.2,12.3,40.8,12.3z M42.9,17.2c0,1-0.2,1.8-0.6,2.4c-0.4,0.6-1,0.9-1.7,0.9c-1.7,0-2.3-1.6-2.3-2.9
		c0-2.5,0.8-3.7,2.3-3.7c1,0,1.6,0.4,2,1.2C42.8,15.8,42.9,16.6,42.9,17.2z"/>
</g>
</svg>
