<?xml version="1.0" encoding="utf-8"?>
<!-- Generator: Adobe Illustrator 18.0.0, SVG Export Plug-In . SVG Version: 6.00 Build 0)  -->
<!DOCTYPE svg PUBLIC "-//W3C//DTD SVG 1.1//EN" "http://www.w3.org/Graphics/SVG/1.1/DTD/svg11.dtd">
<svg version="1.1" id="Calque_1" xmlns="http://www.w3.org/2000/svg" xmlns:xlink="http://www.w3.org/1999/xlink" x="0px" y="0px"
	 viewBox="0 0 54.9 26.3" enable-background="new 0 0 54.9 26.3" xml:space="preserve">
<g>
	<path d="M26.5,0c-5,6.8-10,13.7-15,20.5c4,0,7.9,0,11.8,0c0,1.9,0,3.9,0,5.8c-7.8,0-15.5,0-23.3,0c5-6.8,10-13.6,15-20.5
		c-4.3,0-8.6,0-12.9,0c0-2,0-3.9,0-5.8C10.2,0,18.3,0,26.5,0z"/>
	<path d="M54.9,0.4c-0.1,0.7-0.2,1.3-0.3,1.9c-0.5,1.9-1.4,3.4-3.1,4.4c-1.2,0.7-2.5,0.9-3.9,0.9c-7.2,0-14.3,0-21.5,0
		c-0.1,0-0.2,0-0.3,0c0.1-0.5,0.1-1,0.2-1.4c0.3-1.5,0.9-2.9,2.1-4.1c1.3-1.2,2.9-1.7,4.6-1.8c1.9,0,3.8,0,5.7,0
		c5.4,0,10.7,0,16.1,0C54.6,0.4,54.7,0.4,54.9,0.4z"/>
	<path d="M25.8,16.9c0.1-1.8,0.6-3.5,1.7-4.9c1.1-1.4,2.7-2.1,4.5-2.3c0.4,0,0.8-0.1,1.2-0.1c3.5,0,6.9,0,10.4,0c0.1,0,0.2,0,0.4,0
		c0,0.3,0,0.6-0.1,0.9c-0.2,1.7-0.8,3.3-2.1,4.5c-1,1.1-2.3,1.6-3.8,1.8c-0.6,0.1-1.2,0.1-1.8,0.1c-3.4,0-6.7,0-10.1,0
		C26,16.9,25.9,16.9,25.8,16.9z"/>
	<path d="M36.7,19c-0.1,1.8-0.6,3.4-1.6,4.8c-1.1,1.4-2.6,2.2-4.4,2.4c-1.6,0.1-3.2,0.1-4.8,0.1c0,0,0,0-0.1,0
		c0.1-0.4,0.1-0.9,0.2-1.4c0.3-1.7,1-3.2,2.4-4.3c1.3-1.1,2.8-1.5,4.4-1.5c1.3,0,2.5,0,3.8,0C36.5,18.9,36.6,18.9,36.7,19z"/>
</g>
</svg>
